<?xml version="1.0" encoding="UTF-8" standalone="no"?>
<svg
   width="160mm"
   height="160mm"
   viewBox="0 0 160 160"
   version="1.1"
   preserveAspectRatio="xMidYMid"
   id="svg1"
   sodipodi:docname="box-adel-v2.svg"
   inkscape:version="1.3 (0e150ed6c4, 2023-07-21)"
   xmlns:inkscape="http://www.inkscape.org/namespaces/inkscape"
   xmlns:sodipodi="http://sodipodi.sourceforge.net/DTD/sodipodi-0.dtd"
   xmlns="http://www.w3.org/2000/svg"
   xmlns:svg="http://www.w3.org/2000/svg">
  <defs
     id="defs1" />
  <sodipodi:namedview
     id="namedview1"
     pagecolor="#ffffff"
     bordercolor="#666666"
     borderopacity="1.0"
     inkscape:showpageshadow="2"
     inkscape:pageopacity="0.0"
     inkscape:pagecheckerboard="0"
     inkscape:deskcolor="#d1d1d1"
     inkscape:document-units="mm"
     inkscape:zoom="0.93785736"
     inkscape:cx="349.73335"
     inkscape:cy="341.7364"
     inkscape:window-width="1920"
     inkscape:window-height="991"
     inkscape:window-x="-9"
     inkscape:window-y="-9"
     inkscape:window-maximized="1"
     inkscape:current-layer="svg1" />
  <path
     d="m 3.533507,43.316398 v 12.375 h 3.000002 v 11.25 H 3.533507 v 11.25 1.125 h 9.875039 v -3 h 11.25006 v 3 h 11.25006 v -3 h 11.25006 v 3 h 11.25007 v -3 h 11.25001 v 3 h 9.875 v -12.375 h -3 v -11.25 h 3 v -11.25 -1.125 h -9.875 v 3 h -11.25001 v -3 h -11.25007 v 3 h -11.25006 v -3 h -11.25006 v 3 h -11.25006 v -3 z"
     id="front_outsideCutPath"
     stroke="#FF0000"
     stroke-width="0.2"
     style="font-size:12px;fill:none;fill-rule:evenodd;stroke:#ff0000;stroke-width:0.2;stroke-linecap:round"
     vector-effect="non-scaling-stroke" />
  <path
     d="m 6.158312,121.63356 v 12.375 H 3.15833 v 11.25 h 2.999982 v 11.25 1.125 h 6.874994 v -3 h 11.25 v 3 h 11.25 v -3 h 11.25 v 3 h 11.25 v -3 h 11.25 v 3 h 6.875 v -12.375 h 3 v -11.25 h -3 v -11.25 -1.125 h -6.875 v 3 h -11.25 v -3 h -11.25 v 3 h -11.25 v -3 h -11.25 v 3 h -11.25 v -3 z"
     id="left_outsideCutPath"
     stroke="#FF0000"
     stroke-width="0.2"
     style="font-size:12px;fill:none;fill-rule:evenodd;stroke:#ff0000;stroke-width:0.2;stroke-linecap:round"
     vector-effect="non-scaling-stroke" />
  <path
     d="m 85.158306,84.633558 v 6.875 h -3 v 11.250002 h 3 v 11.25 h -3 v 11.25 h 3 v 11.25 h -3 v 11.25 h 3 v 6.875 h 6.875 v 3 h 11.250004 v -3 h 11.25 v 3 h 11.25 v -3 h 11.25 v 3 h 11.25 v -3 h 6.875 v -6.875 h 3 v -11.25 h -3 v -11.25 h 3 v -11.25 h -3 v -11.25 h 3 V 91.508558 h -3 v -6.875 h -6.875 v -3 h -11.25 v 3 h -11.25 v -3 h -11.25 v 3 h -11.25 v -3 H 92.033306 v 3 z"
     id="top_outsideCutPath"
     stroke="#FF0000"
     stroke-width="0.2"
     style="font-size:12px;fill:none;fill-rule:evenodd;stroke:#ff0000;stroke-width:0.2;stroke-linecap:round"
     vector-effect="non-scaling-stroke" />
  <path
     d="M 3.533507,4.316614 V 16.691545 H 6.533509 V 27.941482 H 3.533507 v 11.249934 1.124994 h 9.875039 v -2.999982 h 11.25006 v 2.999982 h 11.25006 v -2.999982 h 11.25006 v 2.999982 h 11.25007 v -2.999982 h 11.25001 v 2.999982 h 9.875 V 27.941482 h -3 V 16.691545 h 3 V 5.441608 4.316614 h -9.875 V 7.316599 H 58.408796 V 4.316614 H 47.158726 V 7.316599 H 35.908666 V 4.316614 H 24.658606 V 7.316599 H 13.408546 V 4.316614 Z"
     id="back_outsideCutPath"
     stroke="#FF0000"
     stroke-width="0.2"
     style="font-size:12px;fill:none;fill-rule:evenodd;stroke:#ff0000;stroke-width:0.2;stroke-linecap:round"
     vector-effect="non-scaling-stroke" />
  <path
     d="m 6.158312,82.633558 v 12.375 H 3.15833 v 11.250002 h 2.999982 v 11.25 1.125 h 6.874994 v -3 h 11.25 v 3 h 11.25 v -3 h 11.25 v 3 h 11.25 v -3 h 11.25 v 3 h 6.875 v -12.375 h 3 V 95.008558 h -3 v -11.25 -1.125 h -6.875 v 3 h -11.25 v -3 h -11.25 v 3 h -11.25 v -3 h -11.25 v 3 h -11.25 v -3 z"
     id="right_outsideCutPath"
     stroke="#FF0000"
     stroke-width="0.2"
     style="font-size:12px;fill:none;fill-rule:evenodd;stroke:#ff0000;stroke-width:0.2;stroke-linecap:round"
     vector-effect="non-scaling-stroke" />
  <path
     d="m 85.158306,5.633561 v 6.875 h -3 v 11.25 h 3 v 11.25 h -3 v 11.249997 h 3 v 11.25 h -3 v 11.25 h 3 v 6.875 h 6.875 v 3 h 11.250004 v -3 h 11.25 v 3 h 11.25 v -3 h 11.25 v 3 h 11.25 v -3 h 6.875 v -6.875 h 3 v -11.25 h -3 v -11.25 h 3 V 35.008561 h -3 v -11.25 h 3 v -11.25 h -3 v -6.875 h -6.875 v -3 h -11.25 v 3 h -11.25 v -3 h -11.25 v 3 h -11.25 v -3 H 92.033306 v 3 z"
     id="bottom_outsideCutPath"
     stroke="#FF0000"
     stroke-width="0.2"
     style="font-size:12px;fill:none;fill-rule:evenodd;stroke:#ff0000;stroke-width:0.2;stroke-linecap:round"
     vector-effect="non-scaling-stroke" />
  <rect
     style="fill:none;stroke:#ff0000;stroke-width:0.2;stroke-dasharray:none;stroke-opacity:1"
     id="rect1"
     width="8.5446539"
     height="16.283686"
     x="-59.117619"
     y="13.308066"
     transform="rotate(-90)" />
  <rect
     style="fill:none;stroke:#ff0000;stroke-width:0.2;stroke-dasharray:none;stroke-opacity:1"
     id="rect1-9"
     width="8.7303162"
     height="33.750751"
     x="-73.741371"
     y="24.658325"
     transform="rotate(-90)" />
  <ellipse
     style="fill:none;stroke:#ff0000;stroke-width:0.270846;stroke-dasharray:none;stroke-opacity:1"
     id="path1-9"
     cx="135.95688"
     cy="92.663452"
     ry="5.3645773"
     rx="5.3645768" />
</svg>
