; NON-PLATED HOLES START AT T1
; THROUGH (PLATED) HOLES START AT T100
M48
INCH
T1C0.086614
T100C0.031496
T101C0.015748
T102C0.038000
T103C0.038028
%
T1
X026945Y000651
X000690Y026919
X000611Y000670
X026945Y026919
T100
X012945Y018919
X017945Y015919
X012945Y019919
X012945Y013919
X006945Y015919
X001945Y007919
X001945Y012919
X012945Y015919
X017945Y011919
X012945Y011919
X012945Y009919
X017945Y010919
X017945Y009919
X001945Y006919
X001945Y008919
X001945Y018919
X001945Y015919
X012945Y007919
X012945Y020919
X012945Y017919
X001945Y009919
X001945Y014919
X012945Y016919
X012945Y014919
X001945Y020919
X005945Y015919
X001945Y019919
X012945Y010919
X012945Y012919
X001945Y017919
X001945Y010919
X017945Y014919
X017945Y013919
X001945Y011919
X012945Y008919
X012945Y006919
X001945Y016919
X001945Y013919
T101
X014946Y014925
T102
X004198Y025968
X019948Y020919
X021945Y002919
X020945Y006873
X018944Y018919
X020948Y020919
X019945Y018919
X007132Y025968
X019945Y006870
X015905Y025912
X018945Y002920
X021945Y006872
X009733Y025857
X021948Y020919
X020944Y002919
X010945Y017919
X020945Y018919
X019957Y002920
X014632Y017914
X018945Y020919
X018945Y006873
T103
X021945Y018919
T00
M30
