G04 MADE WITH FRITZING*
G04 WWW.FRITZING.ORG*
G04 DOUBLE SIDED*
G04 HOLES PLATED*
G04 CONTOUR ON CENTER OF CONTOUR VECTOR*
%ASAXBY*%
%FSLAX23Y23*%
%MOIN*%
%OFA0B0*%
%SFA1.0B1.0*%
%ADD10C,0.078000*%
%ADD11C,0.078028*%
%ADD12C,0.078740*%
%ADD13C,0.039370*%
%ADD14R,0.077986X0.077944*%
%ADD15R,0.078000X0.041127*%
%ADD16C,0.024000*%
%ADD17R,0.001000X0.001000*%
%LNCOPPER0*%
G90*
G70*
G54D10*
X420Y2597D03*
X713Y2597D03*
X973Y2586D03*
X1591Y2591D03*
X1463Y1791D03*
X1095Y1792D03*
X420Y2597D03*
X713Y2597D03*
X973Y2586D03*
X1591Y2591D03*
X1463Y1791D03*
X1095Y1792D03*
G54D11*
X2195Y1892D03*
G54D10*
X2095Y1892D03*
X1995Y1892D03*
X1894Y1892D03*
G54D12*
X695Y1592D03*
X595Y1592D03*
X1795Y992D03*
X1795Y1092D03*
X1795Y1192D03*
X1795Y1392D03*
X1795Y1492D03*
X1295Y1892D03*
X195Y1192D03*
X195Y1292D03*
X195Y1092D03*
X195Y692D03*
X1295Y2092D03*
X1295Y892D03*
X1295Y1792D03*
X1295Y792D03*
X1295Y1992D03*
X1295Y992D03*
X1295Y1692D03*
X195Y1592D03*
X195Y1892D03*
X195Y992D03*
X195Y1992D03*
X1795Y1592D03*
X195Y2092D03*
X195Y1792D03*
X195Y892D03*
X195Y1392D03*
X195Y792D03*
X195Y1492D03*
X1295Y692D03*
X195Y1692D03*
X1295Y1492D03*
X1295Y1192D03*
X1295Y1292D03*
X1295Y1092D03*
X1295Y1392D03*
X1295Y1592D03*
G54D13*
X1495Y1493D03*
G54D10*
X1895Y2092D03*
X1995Y2092D03*
X2095Y2092D03*
X2195Y2092D03*
X2195Y687D03*
X2095Y687D03*
X1995Y687D03*
X1895Y687D03*
X1895Y292D03*
X1996Y292D03*
X2094Y292D03*
X2195Y292D03*
G54D14*
X1895Y1892D03*
G54D15*
X2195Y762D03*
X2095Y762D03*
X1995Y762D03*
X1895Y762D03*
G54D16*
X2095Y1862D02*
X2095Y717D01*
D02*
X1864Y688D02*
X1336Y692D01*
D02*
X394Y793D02*
X237Y792D01*
D02*
X494Y892D02*
X394Y793D01*
D02*
X494Y2491D02*
X494Y892D01*
D02*
X593Y2592D02*
X494Y2491D01*
D02*
X683Y2596D02*
X593Y2592D01*
D02*
X1395Y1592D02*
X1336Y1592D01*
D02*
X1694Y1492D02*
X1395Y1592D01*
D02*
X1768Y1492D02*
X1694Y1492D01*
D02*
X1595Y1393D02*
X1595Y1193D01*
D02*
X1595Y1193D02*
X1694Y1091D01*
D02*
X1508Y1479D02*
X1595Y1393D01*
D02*
X1694Y1091D02*
X1768Y1092D01*
D02*
X1895Y1293D02*
X1814Y1211D01*
D02*
X1895Y1862D02*
X1895Y1293D01*
D02*
X1994Y1192D02*
X1814Y1011D01*
D02*
X1995Y1862D02*
X1994Y1192D01*
D02*
X1695Y2293D02*
X1316Y2008D01*
D02*
X1995Y2293D02*
X1695Y2293D01*
D02*
X2094Y2192D02*
X1995Y2293D01*
D02*
X2095Y2122D02*
X2094Y2192D01*
D02*
X1196Y2392D02*
X1995Y2392D01*
D02*
X1995Y2392D02*
X2195Y2193D01*
D02*
X1095Y2291D02*
X1196Y2392D01*
D02*
X2195Y2193D02*
X2195Y2122D01*
D02*
X1095Y1993D02*
X1095Y2291D01*
D02*
X1196Y1892D02*
X1095Y1993D01*
D02*
X1268Y1892D02*
X1196Y1892D01*
G54D17*
X192Y2132D02*
X196Y2132D01*
X1291Y2132D02*
X1295Y2132D01*
X186Y2131D02*
X202Y2131D01*
X1285Y2131D02*
X1301Y2131D01*
X182Y2130D02*
X206Y2130D01*
X1282Y2130D02*
X1305Y2130D01*
X180Y2129D02*
X208Y2129D01*
X1279Y2129D02*
X1307Y2129D01*
X178Y2128D02*
X210Y2128D01*
X1277Y2128D02*
X1310Y2128D01*
X176Y2127D02*
X212Y2127D01*
X1275Y2127D02*
X1312Y2127D01*
X174Y2126D02*
X214Y2126D01*
X1273Y2126D02*
X1313Y2126D01*
X172Y2125D02*
X216Y2125D01*
X1271Y2125D02*
X1315Y2125D01*
X171Y2124D02*
X217Y2124D01*
X1270Y2124D02*
X1316Y2124D01*
X170Y2123D02*
X218Y2123D01*
X1269Y2123D02*
X1318Y2123D01*
X168Y2122D02*
X220Y2122D01*
X1268Y2122D02*
X1319Y2122D01*
X167Y2121D02*
X221Y2121D01*
X1266Y2121D02*
X1320Y2121D01*
X166Y2120D02*
X222Y2120D01*
X1266Y2120D02*
X1321Y2120D01*
X165Y2119D02*
X222Y2119D01*
X1265Y2119D02*
X1322Y2119D01*
X165Y2118D02*
X223Y2118D01*
X1264Y2118D02*
X1323Y2118D01*
X164Y2117D02*
X224Y2117D01*
X1263Y2117D02*
X1323Y2117D01*
X163Y2116D02*
X225Y2116D01*
X1262Y2116D02*
X1324Y2116D01*
X162Y2115D02*
X226Y2115D01*
X1262Y2115D02*
X1325Y2115D01*
X162Y2114D02*
X226Y2114D01*
X1261Y2114D02*
X1325Y2114D01*
X161Y2113D02*
X227Y2113D01*
X1260Y2113D02*
X1326Y2113D01*
X161Y2112D02*
X191Y2112D01*
X197Y2112D02*
X227Y2112D01*
X1260Y2112D02*
X1290Y2112D01*
X1296Y2112D02*
X1327Y2112D01*
X160Y2111D02*
X187Y2111D01*
X201Y2111D02*
X228Y2111D01*
X1259Y2111D02*
X1286Y2111D01*
X1301Y2111D02*
X1327Y2111D01*
X160Y2110D02*
X185Y2110D01*
X203Y2110D02*
X228Y2110D01*
X1259Y2110D02*
X1284Y2110D01*
X1303Y2110D02*
X1327Y2110D01*
X159Y2109D02*
X183Y2109D01*
X205Y2109D02*
X229Y2109D01*
X1258Y2109D02*
X1282Y2109D01*
X1304Y2109D02*
X1328Y2109D01*
X159Y2108D02*
X182Y2108D01*
X206Y2108D02*
X229Y2108D01*
X1258Y2108D02*
X1281Y2108D01*
X1305Y2108D02*
X1328Y2108D01*
X158Y2107D02*
X181Y2107D01*
X207Y2107D02*
X230Y2107D01*
X1258Y2107D02*
X1280Y2107D01*
X1307Y2107D02*
X1329Y2107D01*
X158Y2106D02*
X180Y2106D01*
X208Y2106D02*
X230Y2106D01*
X1257Y2106D02*
X1279Y2106D01*
X1308Y2106D02*
X1329Y2106D01*
X158Y2105D02*
X179Y2105D01*
X209Y2105D02*
X230Y2105D01*
X1257Y2105D02*
X1278Y2105D01*
X1308Y2105D02*
X1330Y2105D01*
X157Y2104D02*
X178Y2104D01*
X210Y2104D02*
X231Y2104D01*
X1256Y2104D02*
X1277Y2104D01*
X1309Y2104D02*
X1330Y2104D01*
X157Y2103D02*
X177Y2103D01*
X211Y2103D02*
X231Y2103D01*
X1256Y2103D02*
X1276Y2103D01*
X1310Y2103D02*
X1330Y2103D01*
X157Y2102D02*
X177Y2102D01*
X211Y2102D02*
X231Y2102D01*
X1256Y2102D02*
X1276Y2102D01*
X1311Y2102D02*
X1330Y2102D01*
X156Y2101D02*
X176Y2101D01*
X212Y2101D02*
X231Y2101D01*
X1256Y2101D02*
X1275Y2101D01*
X1311Y2101D02*
X1331Y2101D01*
X156Y2100D02*
X176Y2100D01*
X212Y2100D02*
X232Y2100D01*
X1255Y2100D02*
X1275Y2100D01*
X1311Y2100D02*
X1331Y2100D01*
X156Y2099D02*
X175Y2099D01*
X213Y2099D02*
X232Y2099D01*
X1255Y2099D02*
X1275Y2099D01*
X1312Y2099D02*
X1331Y2099D01*
X156Y2098D02*
X175Y2098D01*
X213Y2098D02*
X232Y2098D01*
X1255Y2098D02*
X1274Y2098D01*
X1312Y2098D02*
X1331Y2098D01*
X156Y2097D02*
X175Y2097D01*
X213Y2097D02*
X232Y2097D01*
X1255Y2097D02*
X1274Y2097D01*
X1312Y2097D02*
X1331Y2097D01*
X156Y2096D02*
X175Y2096D01*
X213Y2096D02*
X232Y2096D01*
X1255Y2096D02*
X1274Y2096D01*
X1312Y2096D02*
X1331Y2096D01*
X156Y2095D02*
X175Y2095D01*
X213Y2095D02*
X232Y2095D01*
X1255Y2095D02*
X1274Y2095D01*
X1312Y2095D02*
X1331Y2095D01*
X156Y2094D02*
X175Y2094D01*
X213Y2094D02*
X232Y2094D01*
X1255Y2094D02*
X1274Y2094D01*
X1313Y2094D02*
X1331Y2094D01*
X156Y2093D02*
X175Y2093D01*
X213Y2093D02*
X232Y2093D01*
X1255Y2093D02*
X1274Y2093D01*
X1313Y2093D02*
X1332Y2093D01*
X156Y2092D02*
X175Y2092D01*
X213Y2092D02*
X232Y2092D01*
X1255Y2092D02*
X1274Y2092D01*
X1312Y2092D02*
X1331Y2092D01*
X156Y2091D02*
X175Y2091D01*
X213Y2091D02*
X232Y2091D01*
X1255Y2091D02*
X1274Y2091D01*
X1312Y2091D02*
X1331Y2091D01*
X156Y2090D02*
X175Y2090D01*
X213Y2090D02*
X232Y2090D01*
X1255Y2090D02*
X1274Y2090D01*
X1312Y2090D02*
X1331Y2090D01*
X156Y2089D02*
X175Y2089D01*
X213Y2089D02*
X232Y2089D01*
X1255Y2089D02*
X1274Y2089D01*
X1312Y2089D02*
X1331Y2089D01*
X156Y2088D02*
X175Y2088D01*
X213Y2088D02*
X232Y2088D01*
X1255Y2088D02*
X1274Y2088D01*
X1312Y2088D02*
X1331Y2088D01*
X156Y2087D02*
X175Y2087D01*
X212Y2087D02*
X232Y2087D01*
X1255Y2087D02*
X1275Y2087D01*
X1312Y2087D02*
X1331Y2087D01*
X156Y2086D02*
X176Y2086D01*
X212Y2086D02*
X232Y2086D01*
X1256Y2086D02*
X1275Y2086D01*
X1311Y2086D02*
X1331Y2086D01*
X157Y2085D02*
X176Y2085D01*
X212Y2085D02*
X231Y2085D01*
X1256Y2085D02*
X1275Y2085D01*
X1311Y2085D02*
X1331Y2085D01*
X157Y2084D02*
X177Y2084D01*
X211Y2084D02*
X231Y2084D01*
X1256Y2084D02*
X1276Y2084D01*
X1310Y2084D02*
X1330Y2084D01*
X157Y2083D02*
X177Y2083D01*
X211Y2083D02*
X231Y2083D01*
X1256Y2083D02*
X1277Y2083D01*
X1310Y2083D02*
X1330Y2083D01*
X157Y2082D02*
X178Y2082D01*
X210Y2082D02*
X231Y2082D01*
X1257Y2082D02*
X1277Y2082D01*
X1309Y2082D02*
X1330Y2082D01*
X158Y2081D02*
X179Y2081D01*
X209Y2081D02*
X230Y2081D01*
X1257Y2081D02*
X1278Y2081D01*
X1308Y2081D02*
X1329Y2081D01*
X158Y2080D02*
X180Y2080D01*
X208Y2080D02*
X230Y2080D01*
X1257Y2080D02*
X1279Y2080D01*
X1307Y2080D02*
X1329Y2080D01*
X158Y2079D02*
X181Y2079D01*
X207Y2079D02*
X229Y2079D01*
X1258Y2079D02*
X1280Y2079D01*
X1306Y2079D02*
X1329Y2079D01*
X159Y2078D02*
X182Y2078D01*
X206Y2078D02*
X229Y2078D01*
X1258Y2078D02*
X1281Y2078D01*
X1305Y2078D02*
X1328Y2078D01*
X159Y2077D02*
X183Y2077D01*
X204Y2077D02*
X229Y2077D01*
X1259Y2077D02*
X1283Y2077D01*
X1304Y2077D02*
X1328Y2077D01*
X160Y2076D02*
X185Y2076D01*
X203Y2076D02*
X228Y2076D01*
X1259Y2076D02*
X1284Y2076D01*
X1302Y2076D02*
X1327Y2076D01*
X160Y2075D02*
X188Y2075D01*
X200Y2075D02*
X228Y2075D01*
X1259Y2075D02*
X1287Y2075D01*
X1299Y2075D02*
X1327Y2075D01*
X161Y2074D02*
X227Y2074D01*
X1260Y2074D02*
X1326Y2074D01*
X161Y2073D02*
X226Y2073D01*
X1261Y2073D02*
X1326Y2073D01*
X162Y2072D02*
X226Y2072D01*
X1261Y2072D02*
X1325Y2072D01*
X163Y2071D02*
X225Y2071D01*
X1262Y2071D02*
X1324Y2071D01*
X163Y2070D02*
X225Y2070D01*
X1263Y2070D02*
X1324Y2070D01*
X164Y2069D02*
X224Y2069D01*
X1263Y2069D02*
X1323Y2069D01*
X165Y2068D02*
X223Y2068D01*
X1264Y2068D02*
X1322Y2068D01*
X166Y2067D02*
X222Y2067D01*
X1265Y2067D02*
X1321Y2067D01*
X167Y2066D02*
X221Y2066D01*
X1266Y2066D02*
X1320Y2066D01*
X168Y2065D02*
X220Y2065D01*
X1267Y2065D02*
X1319Y2065D01*
X169Y2064D02*
X219Y2064D01*
X1268Y2064D02*
X1318Y2064D01*
X170Y2063D02*
X218Y2063D01*
X1269Y2063D02*
X1317Y2063D01*
X171Y2062D02*
X216Y2062D01*
X1271Y2062D02*
X1316Y2062D01*
X173Y2061D02*
X215Y2061D01*
X1272Y2061D02*
X1314Y2061D01*
X175Y2060D02*
X213Y2060D01*
X1274Y2060D02*
X1313Y2060D01*
X176Y2059D02*
X212Y2059D01*
X1275Y2059D02*
X1311Y2059D01*
X178Y2058D02*
X210Y2058D01*
X1278Y2058D02*
X1309Y2058D01*
X181Y2057D02*
X207Y2057D01*
X1280Y2057D02*
X1306Y2057D01*
X184Y2056D02*
X204Y2056D01*
X1283Y2056D02*
X1303Y2056D01*
X188Y2055D02*
X200Y2055D01*
X1287Y2055D02*
X1299Y2055D01*
X192Y2032D02*
X196Y2032D01*
X1291Y2032D02*
X1295Y2032D01*
X186Y2031D02*
X202Y2031D01*
X1285Y2031D02*
X1301Y2031D01*
X182Y2030D02*
X206Y2030D01*
X1281Y2030D02*
X1305Y2030D01*
X180Y2029D02*
X208Y2029D01*
X1279Y2029D02*
X1308Y2029D01*
X177Y2028D02*
X210Y2028D01*
X1277Y2028D02*
X1310Y2028D01*
X175Y2027D02*
X212Y2027D01*
X1275Y2027D02*
X1312Y2027D01*
X174Y2026D02*
X214Y2026D01*
X1273Y2026D02*
X1313Y2026D01*
X172Y2025D02*
X216Y2025D01*
X1271Y2025D02*
X1315Y2025D01*
X171Y2024D02*
X217Y2024D01*
X1270Y2024D02*
X1316Y2024D01*
X169Y2023D02*
X218Y2023D01*
X1269Y2023D02*
X1318Y2023D01*
X168Y2022D02*
X220Y2022D01*
X1268Y2022D02*
X1319Y2022D01*
X167Y2021D02*
X221Y2021D01*
X1266Y2021D02*
X1320Y2021D01*
X166Y2020D02*
X222Y2020D01*
X1265Y2020D02*
X1321Y2020D01*
X165Y2019D02*
X223Y2019D01*
X1265Y2019D02*
X1322Y2019D01*
X165Y2018D02*
X223Y2018D01*
X1264Y2018D02*
X1323Y2018D01*
X164Y2017D02*
X224Y2017D01*
X1263Y2017D02*
X1323Y2017D01*
X163Y2016D02*
X225Y2016D01*
X1262Y2016D02*
X1324Y2016D01*
X162Y2015D02*
X226Y2015D01*
X1262Y2015D02*
X1325Y2015D01*
X162Y2014D02*
X226Y2014D01*
X1261Y2014D02*
X1325Y2014D01*
X161Y2013D02*
X227Y2013D01*
X1260Y2013D02*
X1326Y2013D01*
X161Y2012D02*
X191Y2012D01*
X197Y2012D02*
X227Y2012D01*
X1260Y2012D02*
X1290Y2012D01*
X1296Y2012D02*
X1327Y2012D01*
X160Y2011D02*
X186Y2011D01*
X202Y2011D02*
X228Y2011D01*
X1259Y2011D02*
X1286Y2011D01*
X1301Y2011D02*
X1327Y2011D01*
X160Y2010D02*
X184Y2010D01*
X203Y2010D02*
X228Y2010D01*
X1259Y2010D02*
X1284Y2010D01*
X1303Y2010D02*
X1327Y2010D01*
X159Y2009D02*
X183Y2009D01*
X205Y2009D02*
X229Y2009D01*
X1258Y2009D02*
X1282Y2009D01*
X1304Y2009D02*
X1328Y2009D01*
X159Y2008D02*
X182Y2008D01*
X206Y2008D02*
X229Y2008D01*
X1258Y2008D02*
X1281Y2008D01*
X1305Y2008D02*
X1328Y2008D01*
X158Y2007D02*
X180Y2007D01*
X207Y2007D02*
X230Y2007D01*
X1258Y2007D02*
X1280Y2007D01*
X1307Y2007D02*
X1329Y2007D01*
X158Y2006D02*
X180Y2006D01*
X208Y2006D02*
X230Y2006D01*
X1257Y2006D02*
X1279Y2006D01*
X1308Y2006D02*
X1329Y2006D01*
X158Y2005D02*
X179Y2005D01*
X209Y2005D02*
X230Y2005D01*
X1257Y2005D02*
X1278Y2005D01*
X1308Y2005D02*
X1330Y2005D01*
X157Y2004D02*
X178Y2004D01*
X210Y2004D02*
X231Y2004D01*
X1256Y2004D02*
X1277Y2004D01*
X1309Y2004D02*
X1330Y2004D01*
X157Y2003D02*
X177Y2003D01*
X211Y2003D02*
X231Y2003D01*
X1256Y2003D02*
X1276Y2003D01*
X1310Y2003D02*
X1330Y2003D01*
X157Y2002D02*
X177Y2002D01*
X211Y2002D02*
X231Y2002D01*
X1256Y2002D02*
X1276Y2002D01*
X1311Y2002D02*
X1330Y2002D01*
X156Y2001D02*
X176Y2001D01*
X212Y2001D02*
X231Y2001D01*
X1256Y2001D02*
X1275Y2001D01*
X1311Y2001D02*
X1331Y2001D01*
X156Y2000D02*
X176Y2000D01*
X212Y2000D02*
X232Y2000D01*
X1255Y2000D02*
X1275Y2000D01*
X1311Y2000D02*
X1331Y2000D01*
X156Y1999D02*
X175Y1999D01*
X213Y1999D02*
X232Y1999D01*
X1255Y1999D02*
X1275Y1999D01*
X1312Y1999D02*
X1331Y1999D01*
X156Y1998D02*
X175Y1998D01*
X213Y1998D02*
X232Y1998D01*
X1255Y1998D02*
X1274Y1998D01*
X1312Y1998D02*
X1331Y1998D01*
X156Y1997D02*
X175Y1997D01*
X213Y1997D02*
X232Y1997D01*
X1255Y1997D02*
X1274Y1997D01*
X1312Y1997D02*
X1331Y1997D01*
X156Y1996D02*
X175Y1996D01*
X213Y1996D02*
X232Y1996D01*
X1255Y1996D02*
X1274Y1996D01*
X1312Y1996D02*
X1331Y1996D01*
X156Y1995D02*
X175Y1995D01*
X213Y1995D02*
X232Y1995D01*
X1255Y1995D02*
X1274Y1995D01*
X1312Y1995D02*
X1331Y1995D01*
X156Y1994D02*
X175Y1994D01*
X213Y1994D02*
X232Y1994D01*
X1255Y1994D02*
X1274Y1994D01*
X1313Y1994D02*
X1331Y1994D01*
X156Y1993D02*
X175Y1993D01*
X213Y1993D02*
X232Y1993D01*
X1255Y1993D02*
X1274Y1993D01*
X1313Y1993D02*
X1332Y1993D01*
X156Y1992D02*
X175Y1992D01*
X213Y1992D02*
X232Y1992D01*
X1255Y1992D02*
X1274Y1992D01*
X1312Y1992D02*
X1331Y1992D01*
X156Y1991D02*
X175Y1991D01*
X213Y1991D02*
X232Y1991D01*
X1255Y1991D02*
X1274Y1991D01*
X1312Y1991D02*
X1331Y1991D01*
X156Y1990D02*
X175Y1990D01*
X213Y1990D02*
X232Y1990D01*
X1255Y1990D02*
X1274Y1990D01*
X1312Y1990D02*
X1331Y1990D01*
X156Y1989D02*
X175Y1989D01*
X213Y1989D02*
X232Y1989D01*
X1255Y1989D02*
X1274Y1989D01*
X1312Y1989D02*
X1331Y1989D01*
X156Y1988D02*
X175Y1988D01*
X213Y1988D02*
X232Y1988D01*
X1255Y1988D02*
X1274Y1988D01*
X1312Y1988D02*
X1331Y1988D01*
X156Y1987D02*
X175Y1987D01*
X212Y1987D02*
X232Y1987D01*
X1255Y1987D02*
X1275Y1987D01*
X1312Y1987D02*
X1331Y1987D01*
X156Y1986D02*
X176Y1986D01*
X212Y1986D02*
X232Y1986D01*
X1256Y1986D02*
X1275Y1986D01*
X1311Y1986D02*
X1331Y1986D01*
X157Y1985D02*
X176Y1985D01*
X212Y1985D02*
X231Y1985D01*
X1256Y1985D02*
X1275Y1985D01*
X1311Y1985D02*
X1331Y1985D01*
X157Y1984D02*
X177Y1984D01*
X211Y1984D02*
X231Y1984D01*
X1256Y1984D02*
X1276Y1984D01*
X1310Y1984D02*
X1330Y1984D01*
X157Y1983D02*
X177Y1983D01*
X211Y1983D02*
X231Y1983D01*
X1256Y1983D02*
X1277Y1983D01*
X1310Y1983D02*
X1330Y1983D01*
X157Y1982D02*
X178Y1982D01*
X210Y1982D02*
X231Y1982D01*
X1257Y1982D02*
X1277Y1982D01*
X1309Y1982D02*
X1330Y1982D01*
X158Y1981D02*
X179Y1981D01*
X209Y1981D02*
X230Y1981D01*
X1257Y1981D02*
X1278Y1981D01*
X1308Y1981D02*
X1329Y1981D01*
X158Y1980D02*
X180Y1980D01*
X208Y1980D02*
X230Y1980D01*
X1257Y1980D02*
X1279Y1980D01*
X1307Y1980D02*
X1329Y1980D01*
X159Y1979D02*
X181Y1979D01*
X207Y1979D02*
X229Y1979D01*
X1258Y1979D02*
X1280Y1979D01*
X1306Y1979D02*
X1329Y1979D01*
X159Y1978D02*
X182Y1978D01*
X206Y1978D02*
X229Y1978D01*
X1258Y1978D02*
X1281Y1978D01*
X1305Y1978D02*
X1328Y1978D01*
X159Y1977D02*
X184Y1977D01*
X204Y1977D02*
X229Y1977D01*
X1259Y1977D02*
X1283Y1977D01*
X1304Y1977D02*
X1328Y1977D01*
X160Y1976D02*
X185Y1976D01*
X203Y1976D02*
X228Y1976D01*
X1259Y1976D02*
X1284Y1976D01*
X1302Y1976D02*
X1327Y1976D01*
X160Y1975D02*
X188Y1975D01*
X200Y1975D02*
X228Y1975D01*
X1260Y1975D02*
X1287Y1975D01*
X1299Y1975D02*
X1327Y1975D01*
X161Y1974D02*
X227Y1974D01*
X1260Y1974D02*
X1326Y1974D01*
X161Y1973D02*
X226Y1973D01*
X1261Y1973D02*
X1326Y1973D01*
X162Y1972D02*
X226Y1972D01*
X1261Y1972D02*
X1325Y1972D01*
X163Y1971D02*
X225Y1971D01*
X1262Y1971D02*
X1324Y1971D01*
X163Y1970D02*
X225Y1970D01*
X1263Y1970D02*
X1324Y1970D01*
X164Y1969D02*
X224Y1969D01*
X1263Y1969D02*
X1323Y1969D01*
X165Y1968D02*
X223Y1968D01*
X1264Y1968D02*
X1322Y1968D01*
X166Y1967D02*
X222Y1967D01*
X1265Y1967D02*
X1321Y1967D01*
X167Y1966D02*
X221Y1966D01*
X1266Y1966D02*
X1320Y1966D01*
X168Y1965D02*
X220Y1965D01*
X1267Y1965D02*
X1319Y1965D01*
X169Y1964D02*
X219Y1964D01*
X1268Y1964D02*
X1318Y1964D01*
X170Y1963D02*
X218Y1963D01*
X1269Y1963D02*
X1317Y1963D01*
X171Y1962D02*
X216Y1962D01*
X1271Y1962D02*
X1316Y1962D01*
X173Y1961D02*
X215Y1961D01*
X1272Y1961D02*
X1314Y1961D01*
X175Y1960D02*
X213Y1960D01*
X1274Y1960D02*
X1313Y1960D01*
X176Y1959D02*
X212Y1959D01*
X1276Y1959D02*
X1311Y1959D01*
X178Y1958D02*
X209Y1958D01*
X1278Y1958D02*
X1309Y1958D01*
X181Y1957D02*
X207Y1957D01*
X1280Y1957D02*
X1306Y1957D01*
X184Y1956D02*
X204Y1956D01*
X1283Y1956D02*
X1303Y1956D01*
X188Y1955D02*
X200Y1955D01*
X1287Y1955D02*
X1299Y1955D01*
X191Y1932D02*
X197Y1932D01*
X1290Y1932D02*
X1296Y1932D01*
X186Y1931D02*
X202Y1931D01*
X1285Y1931D02*
X1302Y1931D01*
X182Y1930D02*
X206Y1930D01*
X1281Y1930D02*
X1305Y1930D01*
X180Y1929D02*
X208Y1929D01*
X1279Y1929D02*
X1308Y1929D01*
X177Y1928D02*
X211Y1928D01*
X1277Y1928D02*
X1310Y1928D01*
X175Y1927D02*
X213Y1927D01*
X1275Y1927D02*
X1312Y1927D01*
X174Y1926D02*
X214Y1926D01*
X1273Y1926D02*
X1313Y1926D01*
X172Y1925D02*
X216Y1925D01*
X1271Y1925D02*
X1315Y1925D01*
X171Y1924D02*
X217Y1924D01*
X1270Y1924D02*
X1316Y1924D01*
X169Y1923D02*
X218Y1923D01*
X1269Y1923D02*
X1318Y1923D01*
X168Y1922D02*
X220Y1922D01*
X1268Y1922D02*
X1319Y1922D01*
X167Y1921D02*
X221Y1921D01*
X1266Y1921D02*
X1320Y1921D01*
X166Y1920D02*
X222Y1920D01*
X1265Y1920D02*
X1321Y1920D01*
X165Y1919D02*
X223Y1919D01*
X1265Y1919D02*
X1322Y1919D01*
X165Y1918D02*
X223Y1918D01*
X1264Y1918D02*
X1323Y1918D01*
X164Y1917D02*
X224Y1917D01*
X1263Y1917D02*
X1323Y1917D01*
X163Y1916D02*
X225Y1916D01*
X1262Y1916D02*
X1324Y1916D01*
X162Y1915D02*
X226Y1915D01*
X1262Y1915D02*
X1325Y1915D01*
X162Y1914D02*
X226Y1914D01*
X1261Y1914D02*
X1325Y1914D01*
X161Y1913D02*
X227Y1913D01*
X1260Y1913D02*
X1326Y1913D01*
X161Y1912D02*
X190Y1912D01*
X197Y1912D02*
X227Y1912D01*
X1260Y1912D02*
X1290Y1912D01*
X1297Y1912D02*
X1327Y1912D01*
X160Y1911D02*
X186Y1911D01*
X202Y1911D02*
X228Y1911D01*
X1259Y1911D02*
X1286Y1911D01*
X1301Y1911D02*
X1327Y1911D01*
X160Y1910D02*
X184Y1910D01*
X204Y1910D02*
X228Y1910D01*
X1259Y1910D02*
X1284Y1910D01*
X1303Y1910D02*
X1328Y1910D01*
X159Y1909D02*
X183Y1909D01*
X205Y1909D02*
X229Y1909D01*
X1258Y1909D02*
X1282Y1909D01*
X1304Y1909D02*
X1328Y1909D01*
X159Y1908D02*
X182Y1908D01*
X206Y1908D02*
X229Y1908D01*
X1258Y1908D02*
X1281Y1908D01*
X1306Y1908D02*
X1328Y1908D01*
X158Y1907D02*
X180Y1907D01*
X207Y1907D02*
X230Y1907D01*
X1258Y1907D02*
X1280Y1907D01*
X1307Y1907D02*
X1329Y1907D01*
X158Y1906D02*
X179Y1906D01*
X208Y1906D02*
X230Y1906D01*
X1257Y1906D02*
X1279Y1906D01*
X1308Y1906D02*
X1329Y1906D01*
X158Y1905D02*
X179Y1905D01*
X209Y1905D02*
X230Y1905D01*
X1257Y1905D02*
X1278Y1905D01*
X1308Y1905D02*
X1330Y1905D01*
X157Y1904D02*
X178Y1904D01*
X210Y1904D02*
X231Y1904D01*
X1256Y1904D02*
X1277Y1904D01*
X1309Y1904D02*
X1330Y1904D01*
X157Y1903D02*
X177Y1903D01*
X211Y1903D02*
X231Y1903D01*
X1256Y1903D02*
X1276Y1903D01*
X1310Y1903D02*
X1330Y1903D01*
X157Y1902D02*
X177Y1902D01*
X211Y1902D02*
X231Y1902D01*
X1256Y1902D02*
X1276Y1902D01*
X1311Y1902D02*
X1330Y1902D01*
X156Y1901D02*
X176Y1901D01*
X212Y1901D02*
X231Y1901D01*
X1256Y1901D02*
X1275Y1901D01*
X1311Y1901D02*
X1331Y1901D01*
X156Y1900D02*
X176Y1900D01*
X212Y1900D02*
X232Y1900D01*
X1255Y1900D02*
X1275Y1900D01*
X1311Y1900D02*
X1331Y1900D01*
X156Y1899D02*
X175Y1899D01*
X213Y1899D02*
X232Y1899D01*
X1255Y1899D02*
X1275Y1899D01*
X1312Y1899D02*
X1331Y1899D01*
X156Y1898D02*
X175Y1898D01*
X213Y1898D02*
X232Y1898D01*
X1255Y1898D02*
X1274Y1898D01*
X1312Y1898D02*
X1331Y1898D01*
X156Y1897D02*
X175Y1897D01*
X213Y1897D02*
X232Y1897D01*
X1255Y1897D02*
X1274Y1897D01*
X1312Y1897D02*
X1331Y1897D01*
X156Y1896D02*
X175Y1896D01*
X213Y1896D02*
X232Y1896D01*
X1255Y1896D02*
X1274Y1896D01*
X1312Y1896D02*
X1331Y1896D01*
X156Y1895D02*
X175Y1895D01*
X213Y1895D02*
X232Y1895D01*
X1255Y1895D02*
X1274Y1895D01*
X1312Y1895D02*
X1331Y1895D01*
X156Y1894D02*
X175Y1894D01*
X213Y1894D02*
X232Y1894D01*
X1255Y1894D02*
X1274Y1894D01*
X1313Y1894D02*
X1331Y1894D01*
X156Y1893D02*
X175Y1893D01*
X213Y1893D02*
X232Y1893D01*
X1255Y1893D02*
X1274Y1893D01*
X1313Y1893D02*
X1332Y1893D01*
X156Y1892D02*
X175Y1892D01*
X213Y1892D02*
X232Y1892D01*
X1255Y1892D02*
X1274Y1892D01*
X1312Y1892D02*
X1331Y1892D01*
X156Y1891D02*
X175Y1891D01*
X213Y1891D02*
X232Y1891D01*
X1255Y1891D02*
X1274Y1891D01*
X1312Y1891D02*
X1331Y1891D01*
X156Y1890D02*
X175Y1890D01*
X213Y1890D02*
X232Y1890D01*
X1255Y1890D02*
X1274Y1890D01*
X1312Y1890D02*
X1331Y1890D01*
X156Y1889D02*
X175Y1889D01*
X213Y1889D02*
X232Y1889D01*
X1255Y1889D02*
X1274Y1889D01*
X1312Y1889D02*
X1331Y1889D01*
X156Y1888D02*
X175Y1888D01*
X213Y1888D02*
X232Y1888D01*
X1255Y1888D02*
X1274Y1888D01*
X1312Y1888D02*
X1331Y1888D01*
X156Y1887D02*
X175Y1887D01*
X212Y1887D02*
X232Y1887D01*
X1255Y1887D02*
X1275Y1887D01*
X1312Y1887D02*
X1331Y1887D01*
X156Y1886D02*
X176Y1886D01*
X212Y1886D02*
X232Y1886D01*
X1256Y1886D02*
X1275Y1886D01*
X1311Y1886D02*
X1331Y1886D01*
X157Y1885D02*
X176Y1885D01*
X212Y1885D02*
X231Y1885D01*
X1256Y1885D02*
X1275Y1885D01*
X1311Y1885D02*
X1331Y1885D01*
X157Y1884D02*
X177Y1884D01*
X211Y1884D02*
X231Y1884D01*
X1256Y1884D02*
X1276Y1884D01*
X1310Y1884D02*
X1330Y1884D01*
X157Y1883D02*
X177Y1883D01*
X210Y1883D02*
X231Y1883D01*
X1256Y1883D02*
X1277Y1883D01*
X1310Y1883D02*
X1330Y1883D01*
X157Y1882D02*
X178Y1882D01*
X210Y1882D02*
X231Y1882D01*
X1257Y1882D02*
X1277Y1882D01*
X1309Y1882D02*
X1330Y1882D01*
X158Y1881D02*
X179Y1881D01*
X209Y1881D02*
X230Y1881D01*
X1257Y1881D02*
X1278Y1881D01*
X1308Y1881D02*
X1329Y1881D01*
X158Y1880D02*
X180Y1880D01*
X208Y1880D02*
X230Y1880D01*
X1257Y1880D02*
X1279Y1880D01*
X1307Y1880D02*
X1329Y1880D01*
X159Y1879D02*
X181Y1879D01*
X207Y1879D02*
X229Y1879D01*
X1258Y1879D02*
X1280Y1879D01*
X1306Y1879D02*
X1329Y1879D01*
X159Y1878D02*
X182Y1878D01*
X206Y1878D02*
X229Y1878D01*
X1258Y1878D02*
X1281Y1878D01*
X1305Y1878D02*
X1328Y1878D01*
X159Y1877D02*
X184Y1877D01*
X204Y1877D02*
X229Y1877D01*
X1259Y1877D02*
X1283Y1877D01*
X1304Y1877D02*
X1328Y1877D01*
X160Y1876D02*
X185Y1876D01*
X203Y1876D02*
X228Y1876D01*
X1259Y1876D02*
X1285Y1876D01*
X1302Y1876D02*
X1327Y1876D01*
X160Y1875D02*
X188Y1875D01*
X200Y1875D02*
X228Y1875D01*
X1260Y1875D02*
X1287Y1875D01*
X1299Y1875D02*
X1327Y1875D01*
X161Y1874D02*
X227Y1874D01*
X1260Y1874D02*
X1326Y1874D01*
X161Y1873D02*
X226Y1873D01*
X1261Y1873D02*
X1326Y1873D01*
X162Y1872D02*
X226Y1872D01*
X1261Y1872D02*
X1325Y1872D01*
X163Y1871D02*
X225Y1871D01*
X1262Y1871D02*
X1324Y1871D01*
X163Y1870D02*
X224Y1870D01*
X1263Y1870D02*
X1324Y1870D01*
X164Y1869D02*
X224Y1869D01*
X1263Y1869D02*
X1323Y1869D01*
X165Y1868D02*
X223Y1868D01*
X1264Y1868D02*
X1322Y1868D01*
X166Y1867D02*
X222Y1867D01*
X1265Y1867D02*
X1321Y1867D01*
X167Y1866D02*
X221Y1866D01*
X1266Y1866D02*
X1320Y1866D01*
X168Y1865D02*
X220Y1865D01*
X1267Y1865D02*
X1319Y1865D01*
X169Y1864D02*
X219Y1864D01*
X1268Y1864D02*
X1318Y1864D01*
X170Y1863D02*
X218Y1863D01*
X1269Y1863D02*
X1317Y1863D01*
X172Y1862D02*
X216Y1862D01*
X1271Y1862D02*
X1316Y1862D01*
X173Y1861D02*
X215Y1861D01*
X1272Y1861D02*
X1314Y1861D01*
X175Y1860D02*
X213Y1860D01*
X1274Y1860D02*
X1312Y1860D01*
X176Y1859D02*
X212Y1859D01*
X1276Y1859D02*
X1311Y1859D01*
X179Y1858D02*
X209Y1858D01*
X1278Y1858D02*
X1309Y1858D01*
X181Y1857D02*
X207Y1857D01*
X1280Y1857D02*
X1306Y1857D01*
X184Y1856D02*
X204Y1856D01*
X1283Y1856D02*
X1303Y1856D01*
X188Y1855D02*
X200Y1855D01*
X1287Y1855D02*
X1299Y1855D01*
X191Y1832D02*
X197Y1832D01*
X1290Y1832D02*
X1296Y1832D01*
X185Y1831D02*
X202Y1831D01*
X1285Y1831D02*
X1302Y1831D01*
X182Y1830D02*
X206Y1830D01*
X1281Y1830D02*
X1305Y1830D01*
X179Y1829D02*
X208Y1829D01*
X1279Y1829D02*
X1308Y1829D01*
X177Y1828D02*
X211Y1828D01*
X1277Y1828D02*
X1310Y1828D01*
X175Y1827D02*
X213Y1827D01*
X1275Y1827D02*
X1312Y1827D01*
X174Y1826D02*
X214Y1826D01*
X1273Y1826D02*
X1313Y1826D01*
X172Y1825D02*
X216Y1825D01*
X1271Y1825D02*
X1315Y1825D01*
X171Y1824D02*
X217Y1824D01*
X1270Y1824D02*
X1316Y1824D01*
X169Y1823D02*
X219Y1823D01*
X1269Y1823D02*
X1318Y1823D01*
X168Y1822D02*
X220Y1822D01*
X1267Y1822D02*
X1319Y1822D01*
X167Y1821D02*
X221Y1821D01*
X1266Y1821D02*
X1320Y1821D01*
X166Y1820D02*
X222Y1820D01*
X1265Y1820D02*
X1321Y1820D01*
X165Y1819D02*
X223Y1819D01*
X1265Y1819D02*
X1322Y1819D01*
X164Y1818D02*
X223Y1818D01*
X1264Y1818D02*
X1323Y1818D01*
X164Y1817D02*
X224Y1817D01*
X1263Y1817D02*
X1323Y1817D01*
X163Y1816D02*
X225Y1816D01*
X1262Y1816D02*
X1324Y1816D01*
X162Y1815D02*
X226Y1815D01*
X1262Y1815D02*
X1325Y1815D01*
X162Y1814D02*
X226Y1814D01*
X1261Y1814D02*
X1325Y1814D01*
X161Y1813D02*
X227Y1813D01*
X1260Y1813D02*
X1326Y1813D01*
X161Y1812D02*
X190Y1812D01*
X198Y1812D02*
X227Y1812D01*
X1260Y1812D02*
X1289Y1812D01*
X1297Y1812D02*
X1327Y1812D01*
X160Y1811D02*
X186Y1811D01*
X202Y1811D02*
X228Y1811D01*
X1259Y1811D02*
X1285Y1811D01*
X1301Y1811D02*
X1327Y1811D01*
X160Y1810D02*
X184Y1810D01*
X204Y1810D02*
X228Y1810D01*
X1259Y1810D02*
X1284Y1810D01*
X1303Y1810D02*
X1328Y1810D01*
X159Y1809D02*
X183Y1809D01*
X205Y1809D02*
X229Y1809D01*
X1258Y1809D02*
X1282Y1809D01*
X1304Y1809D02*
X1328Y1809D01*
X159Y1808D02*
X182Y1808D01*
X206Y1808D02*
X229Y1808D01*
X1258Y1808D02*
X1281Y1808D01*
X1306Y1808D02*
X1328Y1808D01*
X158Y1807D02*
X180Y1807D01*
X208Y1807D02*
X230Y1807D01*
X1257Y1807D02*
X1280Y1807D01*
X1307Y1807D02*
X1329Y1807D01*
X158Y1806D02*
X179Y1806D01*
X208Y1806D02*
X230Y1806D01*
X1257Y1806D02*
X1279Y1806D01*
X1308Y1806D02*
X1329Y1806D01*
X158Y1805D02*
X179Y1805D01*
X209Y1805D02*
X230Y1805D01*
X1257Y1805D02*
X1278Y1805D01*
X1309Y1805D02*
X1330Y1805D01*
X157Y1804D02*
X178Y1804D01*
X210Y1804D02*
X231Y1804D01*
X1256Y1804D02*
X1277Y1804D01*
X1309Y1804D02*
X1330Y1804D01*
X157Y1803D02*
X177Y1803D01*
X211Y1803D02*
X231Y1803D01*
X1256Y1803D02*
X1276Y1803D01*
X1310Y1803D02*
X1330Y1803D01*
X157Y1802D02*
X177Y1802D01*
X211Y1802D02*
X231Y1802D01*
X1256Y1802D02*
X1276Y1802D01*
X1311Y1802D02*
X1330Y1802D01*
X156Y1801D02*
X176Y1801D01*
X212Y1801D02*
X231Y1801D01*
X1256Y1801D02*
X1275Y1801D01*
X1311Y1801D02*
X1331Y1801D01*
X156Y1800D02*
X176Y1800D01*
X212Y1800D02*
X232Y1800D01*
X1255Y1800D02*
X1275Y1800D01*
X1311Y1800D02*
X1331Y1800D01*
X156Y1799D02*
X175Y1799D01*
X213Y1799D02*
X232Y1799D01*
X1255Y1799D02*
X1275Y1799D01*
X1312Y1799D02*
X1331Y1799D01*
X156Y1798D02*
X175Y1798D01*
X213Y1798D02*
X232Y1798D01*
X1255Y1798D02*
X1274Y1798D01*
X1312Y1798D02*
X1331Y1798D01*
X156Y1797D02*
X175Y1797D01*
X213Y1797D02*
X232Y1797D01*
X1255Y1797D02*
X1274Y1797D01*
X1312Y1797D02*
X1331Y1797D01*
X156Y1796D02*
X175Y1796D01*
X213Y1796D02*
X232Y1796D01*
X1255Y1796D02*
X1274Y1796D01*
X1312Y1796D02*
X1331Y1796D01*
X156Y1795D02*
X175Y1795D01*
X213Y1795D02*
X232Y1795D01*
X1255Y1795D02*
X1274Y1795D01*
X1312Y1795D02*
X1331Y1795D01*
X156Y1794D02*
X175Y1794D01*
X213Y1794D02*
X232Y1794D01*
X1255Y1794D02*
X1274Y1794D01*
X1313Y1794D02*
X1331Y1794D01*
X156Y1793D02*
X175Y1793D01*
X213Y1793D02*
X232Y1793D01*
X1255Y1793D02*
X1274Y1793D01*
X1313Y1793D02*
X1332Y1793D01*
X156Y1792D02*
X175Y1792D01*
X213Y1792D02*
X232Y1792D01*
X1255Y1792D02*
X1274Y1792D01*
X1312Y1792D02*
X1331Y1792D01*
X156Y1791D02*
X175Y1791D01*
X213Y1791D02*
X232Y1791D01*
X1255Y1791D02*
X1274Y1791D01*
X1312Y1791D02*
X1331Y1791D01*
X156Y1790D02*
X175Y1790D01*
X213Y1790D02*
X232Y1790D01*
X1255Y1790D02*
X1274Y1790D01*
X1312Y1790D02*
X1331Y1790D01*
X156Y1789D02*
X175Y1789D01*
X213Y1789D02*
X232Y1789D01*
X1255Y1789D02*
X1274Y1789D01*
X1312Y1789D02*
X1331Y1789D01*
X156Y1788D02*
X175Y1788D01*
X213Y1788D02*
X232Y1788D01*
X1255Y1788D02*
X1274Y1788D01*
X1312Y1788D02*
X1331Y1788D01*
X156Y1787D02*
X176Y1787D01*
X212Y1787D02*
X232Y1787D01*
X1255Y1787D02*
X1275Y1787D01*
X1312Y1787D02*
X1331Y1787D01*
X156Y1786D02*
X176Y1786D01*
X212Y1786D02*
X232Y1786D01*
X1256Y1786D02*
X1275Y1786D01*
X1311Y1786D02*
X1331Y1786D01*
X157Y1785D02*
X176Y1785D01*
X212Y1785D02*
X231Y1785D01*
X1256Y1785D02*
X1276Y1785D01*
X1311Y1785D02*
X1330Y1785D01*
X157Y1784D02*
X177Y1784D01*
X211Y1784D02*
X231Y1784D01*
X1256Y1784D02*
X1276Y1784D01*
X1310Y1784D02*
X1330Y1784D01*
X157Y1783D02*
X177Y1783D01*
X210Y1783D02*
X231Y1783D01*
X1256Y1783D02*
X1277Y1783D01*
X1310Y1783D02*
X1330Y1783D01*
X157Y1782D02*
X178Y1782D01*
X210Y1782D02*
X230Y1782D01*
X1257Y1782D02*
X1277Y1782D01*
X1309Y1782D02*
X1330Y1782D01*
X158Y1781D02*
X179Y1781D01*
X209Y1781D02*
X230Y1781D01*
X1257Y1781D02*
X1278Y1781D01*
X1308Y1781D02*
X1329Y1781D01*
X158Y1780D02*
X180Y1780D01*
X208Y1780D02*
X230Y1780D01*
X1257Y1780D02*
X1279Y1780D01*
X1307Y1780D02*
X1329Y1780D01*
X159Y1779D02*
X181Y1779D01*
X207Y1779D02*
X229Y1779D01*
X1258Y1779D02*
X1280Y1779D01*
X1306Y1779D02*
X1329Y1779D01*
X159Y1778D02*
X182Y1778D01*
X206Y1778D02*
X229Y1778D01*
X1258Y1778D02*
X1281Y1778D01*
X1305Y1778D02*
X1328Y1778D01*
X159Y1777D02*
X184Y1777D01*
X204Y1777D02*
X229Y1777D01*
X1259Y1777D02*
X1283Y1777D01*
X1303Y1777D02*
X1328Y1777D01*
X160Y1776D02*
X185Y1776D01*
X203Y1776D02*
X228Y1776D01*
X1259Y1776D02*
X1285Y1776D01*
X1302Y1776D02*
X1327Y1776D01*
X160Y1775D02*
X188Y1775D01*
X200Y1775D02*
X228Y1775D01*
X1260Y1775D02*
X1287Y1775D01*
X1299Y1775D02*
X1327Y1775D01*
X161Y1774D02*
X227Y1774D01*
X1260Y1774D02*
X1326Y1774D01*
X162Y1773D02*
X226Y1773D01*
X1261Y1773D02*
X1326Y1773D01*
X162Y1772D02*
X226Y1772D01*
X1261Y1772D02*
X1325Y1772D01*
X163Y1771D02*
X225Y1771D01*
X1262Y1771D02*
X1324Y1771D01*
X163Y1770D02*
X224Y1770D01*
X1263Y1770D02*
X1324Y1770D01*
X164Y1769D02*
X224Y1769D01*
X1263Y1769D02*
X1323Y1769D01*
X165Y1768D02*
X223Y1768D01*
X1264Y1768D02*
X1322Y1768D01*
X166Y1767D02*
X222Y1767D01*
X1265Y1767D02*
X1321Y1767D01*
X167Y1766D02*
X221Y1766D01*
X1266Y1766D02*
X1320Y1766D01*
X168Y1765D02*
X220Y1765D01*
X1267Y1765D02*
X1319Y1765D01*
X169Y1764D02*
X219Y1764D01*
X1268Y1764D02*
X1318Y1764D01*
X170Y1763D02*
X218Y1763D01*
X1269Y1763D02*
X1317Y1763D01*
X172Y1762D02*
X216Y1762D01*
X1271Y1762D02*
X1316Y1762D01*
X173Y1761D02*
X215Y1761D01*
X1272Y1761D02*
X1314Y1761D01*
X175Y1760D02*
X213Y1760D01*
X1274Y1760D02*
X1312Y1760D01*
X177Y1759D02*
X211Y1759D01*
X1276Y1759D02*
X1311Y1759D01*
X179Y1758D02*
X209Y1758D01*
X1278Y1758D02*
X1309Y1758D01*
X181Y1757D02*
X207Y1757D01*
X1280Y1757D02*
X1306Y1757D01*
X184Y1756D02*
X204Y1756D01*
X1283Y1756D02*
X1303Y1756D01*
X188Y1755D02*
X200Y1755D01*
X1287Y1755D02*
X1299Y1755D01*
X190Y1732D02*
X197Y1732D01*
X1290Y1732D02*
X1297Y1732D01*
X185Y1731D02*
X203Y1731D01*
X1285Y1731D02*
X1302Y1731D01*
X182Y1730D02*
X206Y1730D01*
X1281Y1730D02*
X1305Y1730D01*
X179Y1729D02*
X209Y1729D01*
X1279Y1729D02*
X1308Y1729D01*
X177Y1728D02*
X211Y1728D01*
X1276Y1728D02*
X1310Y1728D01*
X175Y1727D02*
X213Y1727D01*
X1274Y1727D02*
X1312Y1727D01*
X174Y1726D02*
X214Y1726D01*
X1273Y1726D02*
X1313Y1726D01*
X172Y1725D02*
X216Y1725D01*
X1271Y1725D02*
X1315Y1725D01*
X171Y1724D02*
X217Y1724D01*
X1270Y1724D02*
X1316Y1724D01*
X169Y1723D02*
X219Y1723D01*
X1269Y1723D02*
X1318Y1723D01*
X168Y1722D02*
X220Y1722D01*
X1267Y1722D02*
X1319Y1722D01*
X167Y1721D02*
X221Y1721D01*
X1266Y1721D02*
X1320Y1721D01*
X166Y1720D02*
X222Y1720D01*
X1265Y1720D02*
X1321Y1720D01*
X165Y1719D02*
X223Y1719D01*
X1264Y1719D02*
X1322Y1719D01*
X164Y1718D02*
X223Y1718D01*
X1264Y1718D02*
X1323Y1718D01*
X164Y1717D02*
X224Y1717D01*
X1263Y1717D02*
X1323Y1717D01*
X163Y1716D02*
X225Y1716D01*
X1262Y1716D02*
X1324Y1716D01*
X162Y1715D02*
X226Y1715D01*
X1261Y1715D02*
X1325Y1715D01*
X162Y1714D02*
X226Y1714D01*
X1261Y1714D02*
X1325Y1714D01*
X161Y1713D02*
X227Y1713D01*
X1260Y1713D02*
X1326Y1713D01*
X161Y1712D02*
X190Y1712D01*
X198Y1712D02*
X227Y1712D01*
X1260Y1712D02*
X1289Y1712D01*
X1297Y1712D02*
X1327Y1712D01*
X160Y1711D02*
X186Y1711D01*
X202Y1711D02*
X228Y1711D01*
X1259Y1711D02*
X1285Y1711D01*
X1301Y1711D02*
X1327Y1711D01*
X160Y1710D02*
X184Y1710D01*
X204Y1710D02*
X228Y1710D01*
X1259Y1710D02*
X1283Y1710D01*
X1303Y1710D02*
X1328Y1710D01*
X159Y1709D02*
X183Y1709D01*
X205Y1709D02*
X229Y1709D01*
X1258Y1709D02*
X1282Y1709D01*
X1304Y1709D02*
X1328Y1709D01*
X159Y1708D02*
X182Y1708D01*
X206Y1708D02*
X229Y1708D01*
X1258Y1708D02*
X1281Y1708D01*
X1306Y1708D02*
X1328Y1708D01*
X158Y1707D02*
X180Y1707D01*
X208Y1707D02*
X230Y1707D01*
X1257Y1707D02*
X1280Y1707D01*
X1307Y1707D02*
X1329Y1707D01*
X158Y1706D02*
X179Y1706D01*
X208Y1706D02*
X230Y1706D01*
X1257Y1706D02*
X1279Y1706D01*
X1308Y1706D02*
X1329Y1706D01*
X158Y1705D02*
X179Y1705D01*
X209Y1705D02*
X230Y1705D01*
X1257Y1705D02*
X1278Y1705D01*
X1309Y1705D02*
X1330Y1705D01*
X157Y1704D02*
X178Y1704D01*
X210Y1704D02*
X231Y1704D01*
X1256Y1704D02*
X1277Y1704D01*
X1309Y1704D02*
X1330Y1704D01*
X157Y1703D02*
X177Y1703D01*
X211Y1703D02*
X231Y1703D01*
X1256Y1703D02*
X1276Y1703D01*
X1310Y1703D02*
X1330Y1703D01*
X157Y1702D02*
X177Y1702D01*
X211Y1702D02*
X231Y1702D01*
X1256Y1702D02*
X1276Y1702D01*
X1311Y1702D02*
X1330Y1702D01*
X156Y1701D02*
X176Y1701D01*
X212Y1701D02*
X231Y1701D01*
X1256Y1701D02*
X1275Y1701D01*
X1311Y1701D02*
X1331Y1701D01*
X156Y1700D02*
X176Y1700D01*
X212Y1700D02*
X232Y1700D01*
X1255Y1700D02*
X1275Y1700D01*
X1311Y1700D02*
X1331Y1700D01*
X156Y1699D02*
X175Y1699D01*
X213Y1699D02*
X232Y1699D01*
X1255Y1699D02*
X1275Y1699D01*
X1312Y1699D02*
X1331Y1699D01*
X156Y1698D02*
X175Y1698D01*
X213Y1698D02*
X232Y1698D01*
X1255Y1698D02*
X1274Y1698D01*
X1312Y1698D02*
X1331Y1698D01*
X156Y1697D02*
X175Y1697D01*
X213Y1697D02*
X232Y1697D01*
X1255Y1697D02*
X1274Y1697D01*
X1312Y1697D02*
X1331Y1697D01*
X156Y1696D02*
X175Y1696D01*
X213Y1696D02*
X232Y1696D01*
X1255Y1696D02*
X1274Y1696D01*
X1312Y1696D02*
X1331Y1696D01*
X156Y1695D02*
X175Y1695D01*
X213Y1695D02*
X232Y1695D01*
X1255Y1695D02*
X1274Y1695D01*
X1312Y1695D02*
X1331Y1695D01*
X156Y1694D02*
X175Y1694D01*
X213Y1694D02*
X232Y1694D01*
X1255Y1694D02*
X1274Y1694D01*
X1313Y1694D02*
X1331Y1694D01*
X156Y1693D02*
X175Y1693D01*
X213Y1693D02*
X232Y1693D01*
X1255Y1693D02*
X1274Y1693D01*
X1313Y1693D02*
X1332Y1693D01*
X156Y1692D02*
X175Y1692D01*
X213Y1692D02*
X232Y1692D01*
X1255Y1692D02*
X1274Y1692D01*
X1312Y1692D02*
X1331Y1692D01*
X156Y1691D02*
X175Y1691D01*
X213Y1691D02*
X232Y1691D01*
X1255Y1691D02*
X1274Y1691D01*
X1312Y1691D02*
X1331Y1691D01*
X156Y1690D02*
X175Y1690D01*
X213Y1690D02*
X232Y1690D01*
X1255Y1690D02*
X1274Y1690D01*
X1312Y1690D02*
X1331Y1690D01*
X156Y1689D02*
X175Y1689D01*
X213Y1689D02*
X232Y1689D01*
X1255Y1689D02*
X1274Y1689D01*
X1312Y1689D02*
X1331Y1689D01*
X156Y1688D02*
X175Y1688D01*
X213Y1688D02*
X232Y1688D01*
X1255Y1688D02*
X1274Y1688D01*
X1312Y1688D02*
X1331Y1688D01*
X156Y1687D02*
X176Y1687D01*
X212Y1687D02*
X232Y1687D01*
X1255Y1687D02*
X1275Y1687D01*
X1312Y1687D02*
X1331Y1687D01*
X156Y1686D02*
X176Y1686D01*
X212Y1686D02*
X232Y1686D01*
X1256Y1686D02*
X1275Y1686D01*
X1311Y1686D02*
X1331Y1686D01*
X157Y1685D02*
X176Y1685D01*
X212Y1685D02*
X231Y1685D01*
X1256Y1685D02*
X1276Y1685D01*
X1311Y1685D02*
X1330Y1685D01*
X157Y1684D02*
X177Y1684D01*
X211Y1684D02*
X231Y1684D01*
X1256Y1684D02*
X1276Y1684D01*
X1310Y1684D02*
X1330Y1684D01*
X157Y1683D02*
X177Y1683D01*
X210Y1683D02*
X231Y1683D01*
X1256Y1683D02*
X1277Y1683D01*
X1310Y1683D02*
X1330Y1683D01*
X157Y1682D02*
X178Y1682D01*
X210Y1682D02*
X230Y1682D01*
X1257Y1682D02*
X1277Y1682D01*
X1309Y1682D02*
X1330Y1682D01*
X158Y1681D02*
X179Y1681D01*
X209Y1681D02*
X230Y1681D01*
X1257Y1681D02*
X1278Y1681D01*
X1308Y1681D02*
X1329Y1681D01*
X158Y1680D02*
X180Y1680D01*
X208Y1680D02*
X230Y1680D01*
X1257Y1680D02*
X1279Y1680D01*
X1307Y1680D02*
X1329Y1680D01*
X159Y1679D02*
X181Y1679D01*
X207Y1679D02*
X229Y1679D01*
X1258Y1679D02*
X1280Y1679D01*
X1306Y1679D02*
X1329Y1679D01*
X159Y1678D02*
X182Y1678D01*
X206Y1678D02*
X229Y1678D01*
X1258Y1678D02*
X1282Y1678D01*
X1305Y1678D02*
X1328Y1678D01*
X159Y1677D02*
X184Y1677D01*
X204Y1677D02*
X229Y1677D01*
X1259Y1677D02*
X1283Y1677D01*
X1303Y1677D02*
X1328Y1677D01*
X160Y1676D02*
X185Y1676D01*
X202Y1676D02*
X228Y1676D01*
X1259Y1676D02*
X1285Y1676D01*
X1302Y1676D02*
X1327Y1676D01*
X160Y1675D02*
X188Y1675D01*
X200Y1675D02*
X228Y1675D01*
X1260Y1675D02*
X1288Y1675D01*
X1299Y1675D02*
X1327Y1675D01*
X161Y1674D02*
X227Y1674D01*
X1260Y1674D02*
X1326Y1674D01*
X162Y1673D02*
X226Y1673D01*
X1261Y1673D02*
X1326Y1673D01*
X162Y1672D02*
X226Y1672D01*
X1261Y1672D02*
X1325Y1672D01*
X163Y1671D02*
X225Y1671D01*
X1262Y1671D02*
X1324Y1671D01*
X163Y1670D02*
X224Y1670D01*
X1263Y1670D02*
X1324Y1670D01*
X164Y1669D02*
X224Y1669D01*
X1263Y1669D02*
X1323Y1669D01*
X165Y1668D02*
X223Y1668D01*
X1264Y1668D02*
X1322Y1668D01*
X166Y1667D02*
X222Y1667D01*
X1265Y1667D02*
X1321Y1667D01*
X167Y1666D02*
X221Y1666D01*
X1266Y1666D02*
X1320Y1666D01*
X168Y1665D02*
X220Y1665D01*
X1267Y1665D02*
X1319Y1665D01*
X169Y1664D02*
X219Y1664D01*
X1268Y1664D02*
X1318Y1664D01*
X170Y1663D02*
X218Y1663D01*
X1269Y1663D02*
X1317Y1663D01*
X172Y1662D02*
X216Y1662D01*
X1271Y1662D02*
X1316Y1662D01*
X173Y1661D02*
X215Y1661D01*
X1272Y1661D02*
X1314Y1661D01*
X175Y1660D02*
X213Y1660D01*
X1274Y1660D02*
X1312Y1660D01*
X177Y1659D02*
X211Y1659D01*
X1276Y1659D02*
X1311Y1659D01*
X179Y1658D02*
X209Y1658D01*
X1278Y1658D02*
X1308Y1658D01*
X181Y1657D02*
X207Y1657D01*
X1280Y1657D02*
X1306Y1657D01*
X184Y1656D02*
X204Y1656D01*
X1283Y1656D02*
X1303Y1656D01*
X188Y1655D02*
X199Y1655D01*
X1288Y1655D02*
X1299Y1655D01*
X190Y1632D02*
X198Y1632D01*
X1289Y1632D02*
X1297Y1632D01*
X185Y1631D02*
X203Y1631D01*
X1284Y1631D02*
X1302Y1631D01*
X182Y1630D02*
X206Y1630D01*
X1281Y1630D02*
X1305Y1630D01*
X179Y1629D02*
X209Y1629D01*
X1278Y1629D02*
X1308Y1629D01*
X177Y1628D02*
X211Y1628D01*
X1276Y1628D02*
X1310Y1628D01*
X175Y1627D02*
X213Y1627D01*
X1274Y1627D02*
X1312Y1627D01*
X174Y1626D02*
X214Y1626D01*
X1273Y1626D02*
X1314Y1626D01*
X172Y1625D02*
X216Y1625D01*
X1271Y1625D02*
X1315Y1625D01*
X171Y1624D02*
X217Y1624D01*
X1270Y1624D02*
X1316Y1624D01*
X169Y1623D02*
X219Y1623D01*
X1269Y1623D02*
X1318Y1623D01*
X168Y1622D02*
X220Y1622D01*
X1267Y1622D02*
X1319Y1622D01*
X167Y1621D02*
X221Y1621D01*
X1266Y1621D02*
X1320Y1621D01*
X166Y1620D02*
X222Y1620D01*
X1265Y1620D02*
X1321Y1620D01*
X165Y1619D02*
X223Y1619D01*
X1264Y1619D02*
X1322Y1619D01*
X164Y1618D02*
X223Y1618D01*
X1264Y1618D02*
X1323Y1618D01*
X164Y1617D02*
X224Y1617D01*
X1263Y1617D02*
X1323Y1617D01*
X163Y1616D02*
X225Y1616D01*
X1262Y1616D02*
X1324Y1616D01*
X162Y1615D02*
X226Y1615D01*
X1261Y1615D02*
X1325Y1615D01*
X162Y1614D02*
X226Y1614D01*
X1261Y1614D02*
X1325Y1614D01*
X161Y1613D02*
X227Y1613D01*
X1260Y1613D02*
X1326Y1613D01*
X161Y1612D02*
X189Y1612D01*
X198Y1612D02*
X227Y1612D01*
X1260Y1612D02*
X1289Y1612D01*
X1298Y1612D02*
X1327Y1612D01*
X160Y1611D02*
X186Y1611D01*
X202Y1611D02*
X228Y1611D01*
X1259Y1611D02*
X1285Y1611D01*
X1301Y1611D02*
X1327Y1611D01*
X160Y1610D02*
X184Y1610D01*
X204Y1610D02*
X228Y1610D01*
X1259Y1610D02*
X1283Y1610D01*
X1303Y1610D02*
X1328Y1610D01*
X159Y1609D02*
X183Y1609D01*
X205Y1609D02*
X229Y1609D01*
X1258Y1609D02*
X1282Y1609D01*
X1304Y1609D02*
X1328Y1609D01*
X159Y1608D02*
X181Y1608D01*
X206Y1608D02*
X229Y1608D01*
X1258Y1608D02*
X1281Y1608D01*
X1306Y1608D02*
X1328Y1608D01*
X158Y1607D02*
X180Y1607D01*
X208Y1607D02*
X230Y1607D01*
X1257Y1607D02*
X1280Y1607D01*
X1307Y1607D02*
X1329Y1607D01*
X158Y1606D02*
X179Y1606D01*
X209Y1606D02*
X230Y1606D01*
X1257Y1606D02*
X1279Y1606D01*
X1308Y1606D02*
X1329Y1606D01*
X158Y1605D02*
X179Y1605D01*
X209Y1605D02*
X230Y1605D01*
X1257Y1605D02*
X1278Y1605D01*
X1309Y1605D02*
X1330Y1605D01*
X157Y1604D02*
X178Y1604D01*
X210Y1604D02*
X231Y1604D01*
X1256Y1604D02*
X1277Y1604D01*
X1309Y1604D02*
X1330Y1604D01*
X157Y1603D02*
X177Y1603D01*
X211Y1603D02*
X231Y1603D01*
X1256Y1603D02*
X1276Y1603D01*
X1310Y1603D02*
X1330Y1603D01*
X157Y1602D02*
X177Y1602D01*
X211Y1602D02*
X231Y1602D01*
X1256Y1602D02*
X1276Y1602D01*
X1311Y1602D02*
X1330Y1602D01*
X156Y1601D02*
X176Y1601D01*
X212Y1601D02*
X231Y1601D01*
X1256Y1601D02*
X1275Y1601D01*
X1311Y1601D02*
X1331Y1601D01*
X156Y1600D02*
X176Y1600D01*
X212Y1600D02*
X232Y1600D01*
X1255Y1600D02*
X1275Y1600D01*
X1312Y1600D02*
X1331Y1600D01*
X156Y1599D02*
X175Y1599D01*
X213Y1599D02*
X232Y1599D01*
X1255Y1599D02*
X1274Y1599D01*
X1312Y1599D02*
X1331Y1599D01*
X156Y1598D02*
X175Y1598D01*
X213Y1598D02*
X232Y1598D01*
X1255Y1598D02*
X1274Y1598D01*
X1312Y1598D02*
X1331Y1598D01*
X156Y1597D02*
X175Y1597D01*
X213Y1597D02*
X232Y1597D01*
X1255Y1597D02*
X1274Y1597D01*
X1312Y1597D02*
X1331Y1597D01*
X156Y1596D02*
X175Y1596D01*
X213Y1596D02*
X232Y1596D01*
X1255Y1596D02*
X1274Y1596D01*
X1312Y1596D02*
X1331Y1596D01*
X156Y1595D02*
X175Y1595D01*
X213Y1595D02*
X232Y1595D01*
X1255Y1595D02*
X1274Y1595D01*
X1312Y1595D02*
X1331Y1595D01*
X156Y1594D02*
X175Y1594D01*
X213Y1594D02*
X232Y1594D01*
X1255Y1594D02*
X1274Y1594D01*
X1313Y1594D02*
X1331Y1594D01*
X156Y1593D02*
X175Y1593D01*
X213Y1593D02*
X232Y1593D01*
X1255Y1593D02*
X1274Y1593D01*
X1313Y1593D02*
X1332Y1593D01*
X156Y1592D02*
X175Y1592D01*
X213Y1592D02*
X232Y1592D01*
X1255Y1592D02*
X1274Y1592D01*
X1312Y1592D02*
X1331Y1592D01*
X156Y1591D02*
X175Y1591D01*
X213Y1591D02*
X232Y1591D01*
X1255Y1591D02*
X1274Y1591D01*
X1312Y1591D02*
X1331Y1591D01*
X156Y1590D02*
X175Y1590D01*
X213Y1590D02*
X232Y1590D01*
X1255Y1590D02*
X1274Y1590D01*
X1312Y1590D02*
X1331Y1590D01*
X156Y1589D02*
X175Y1589D01*
X213Y1589D02*
X232Y1589D01*
X1255Y1589D02*
X1274Y1589D01*
X1312Y1589D02*
X1331Y1589D01*
X156Y1588D02*
X175Y1588D01*
X213Y1588D02*
X232Y1588D01*
X1255Y1588D02*
X1274Y1588D01*
X1312Y1588D02*
X1331Y1588D01*
X156Y1587D02*
X176Y1587D01*
X212Y1587D02*
X232Y1587D01*
X1255Y1587D02*
X1275Y1587D01*
X1312Y1587D02*
X1331Y1587D01*
X156Y1586D02*
X176Y1586D01*
X212Y1586D02*
X232Y1586D01*
X1256Y1586D02*
X1275Y1586D01*
X1311Y1586D02*
X1331Y1586D01*
X157Y1585D02*
X176Y1585D01*
X212Y1585D02*
X231Y1585D01*
X1256Y1585D02*
X1276Y1585D01*
X1311Y1585D02*
X1330Y1585D01*
X157Y1584D02*
X177Y1584D01*
X211Y1584D02*
X231Y1584D01*
X1256Y1584D02*
X1276Y1584D01*
X1310Y1584D02*
X1330Y1584D01*
X157Y1583D02*
X178Y1583D01*
X210Y1583D02*
X231Y1583D01*
X1256Y1583D02*
X1277Y1583D01*
X1310Y1583D02*
X1330Y1583D01*
X157Y1582D02*
X178Y1582D01*
X210Y1582D02*
X230Y1582D01*
X1257Y1582D02*
X1278Y1582D01*
X1309Y1582D02*
X1330Y1582D01*
X158Y1581D02*
X179Y1581D01*
X209Y1581D02*
X230Y1581D01*
X1257Y1581D02*
X1278Y1581D01*
X1308Y1581D02*
X1329Y1581D01*
X158Y1580D02*
X180Y1580D01*
X208Y1580D02*
X230Y1580D01*
X1257Y1580D02*
X1279Y1580D01*
X1307Y1580D02*
X1329Y1580D01*
X159Y1579D02*
X181Y1579D01*
X207Y1579D02*
X229Y1579D01*
X1258Y1579D02*
X1280Y1579D01*
X1306Y1579D02*
X1329Y1579D01*
X159Y1578D02*
X182Y1578D01*
X206Y1578D02*
X229Y1578D01*
X1258Y1578D02*
X1282Y1578D01*
X1305Y1578D02*
X1328Y1578D01*
X159Y1577D02*
X184Y1577D01*
X204Y1577D02*
X228Y1577D01*
X1259Y1577D02*
X1283Y1577D01*
X1303Y1577D02*
X1328Y1577D01*
X160Y1576D02*
X186Y1576D01*
X202Y1576D02*
X228Y1576D01*
X1259Y1576D02*
X1285Y1576D01*
X1302Y1576D02*
X1327Y1576D01*
X160Y1575D02*
X188Y1575D01*
X199Y1575D02*
X228Y1575D01*
X1260Y1575D02*
X1288Y1575D01*
X1299Y1575D02*
X1327Y1575D01*
X161Y1574D02*
X227Y1574D01*
X1260Y1574D02*
X1326Y1574D01*
X162Y1573D02*
X226Y1573D01*
X1261Y1573D02*
X1326Y1573D01*
X162Y1572D02*
X226Y1572D01*
X1261Y1572D02*
X1325Y1572D01*
X163Y1571D02*
X225Y1571D01*
X1262Y1571D02*
X1324Y1571D01*
X164Y1570D02*
X224Y1570D01*
X1263Y1570D02*
X1324Y1570D01*
X164Y1569D02*
X224Y1569D01*
X1263Y1569D02*
X1323Y1569D01*
X165Y1568D02*
X223Y1568D01*
X1264Y1568D02*
X1322Y1568D01*
X166Y1567D02*
X222Y1567D01*
X1265Y1567D02*
X1321Y1567D01*
X167Y1566D02*
X221Y1566D01*
X1266Y1566D02*
X1320Y1566D01*
X168Y1565D02*
X220Y1565D01*
X1267Y1565D02*
X1319Y1565D01*
X169Y1564D02*
X219Y1564D01*
X1268Y1564D02*
X1318Y1564D01*
X170Y1563D02*
X218Y1563D01*
X1269Y1563D02*
X1317Y1563D01*
X172Y1562D02*
X216Y1562D01*
X1271Y1562D02*
X1315Y1562D01*
X173Y1561D02*
X215Y1561D01*
X1272Y1561D02*
X1314Y1561D01*
X175Y1560D02*
X213Y1560D01*
X1274Y1560D02*
X1312Y1560D01*
X177Y1559D02*
X211Y1559D01*
X1276Y1559D02*
X1310Y1559D01*
X179Y1558D02*
X209Y1558D01*
X1278Y1558D02*
X1308Y1558D01*
X181Y1557D02*
X207Y1557D01*
X1280Y1557D02*
X1306Y1557D01*
X184Y1556D02*
X204Y1556D01*
X1283Y1556D02*
X1303Y1556D01*
X189Y1555D02*
X199Y1555D01*
X1288Y1555D02*
X1298Y1555D01*
X190Y1532D02*
X198Y1532D01*
X1289Y1532D02*
X1297Y1532D01*
X185Y1531D02*
X203Y1531D01*
X1284Y1531D02*
X1302Y1531D01*
X182Y1530D02*
X206Y1530D01*
X1281Y1530D02*
X1305Y1530D01*
X179Y1529D02*
X209Y1529D01*
X1278Y1529D02*
X1308Y1529D01*
X177Y1528D02*
X211Y1528D01*
X1276Y1528D02*
X1310Y1528D01*
X175Y1527D02*
X213Y1527D01*
X1274Y1527D02*
X1312Y1527D01*
X173Y1526D02*
X214Y1526D01*
X1273Y1526D02*
X1314Y1526D01*
X172Y1525D02*
X216Y1525D01*
X1271Y1525D02*
X1315Y1525D01*
X171Y1524D02*
X217Y1524D01*
X1270Y1524D02*
X1317Y1524D01*
X169Y1523D02*
X219Y1523D01*
X1268Y1523D02*
X1318Y1523D01*
X168Y1522D02*
X220Y1522D01*
X1267Y1522D02*
X1319Y1522D01*
X167Y1521D02*
X221Y1521D01*
X1266Y1521D02*
X1320Y1521D01*
X166Y1520D02*
X222Y1520D01*
X1265Y1520D02*
X1321Y1520D01*
X165Y1519D02*
X223Y1519D01*
X1264Y1519D02*
X1322Y1519D01*
X164Y1518D02*
X224Y1518D01*
X1264Y1518D02*
X1323Y1518D01*
X164Y1517D02*
X224Y1517D01*
X1263Y1517D02*
X1323Y1517D01*
X163Y1516D02*
X225Y1516D01*
X1262Y1516D02*
X1324Y1516D01*
X162Y1515D02*
X226Y1515D01*
X1261Y1515D02*
X1325Y1515D01*
X162Y1514D02*
X226Y1514D01*
X1261Y1514D02*
X1325Y1514D01*
X161Y1513D02*
X227Y1513D01*
X1260Y1513D02*
X1326Y1513D01*
X161Y1512D02*
X189Y1512D01*
X199Y1512D02*
X227Y1512D01*
X1260Y1512D02*
X1288Y1512D01*
X1298Y1512D02*
X1327Y1512D01*
X160Y1511D02*
X186Y1511D01*
X202Y1511D02*
X228Y1511D01*
X1259Y1511D02*
X1285Y1511D01*
X1301Y1511D02*
X1327Y1511D01*
X160Y1510D02*
X184Y1510D01*
X204Y1510D02*
X228Y1510D01*
X1259Y1510D02*
X1283Y1510D01*
X1303Y1510D02*
X1328Y1510D01*
X159Y1509D02*
X183Y1509D01*
X205Y1509D02*
X229Y1509D01*
X1258Y1509D02*
X1282Y1509D01*
X1305Y1509D02*
X1328Y1509D01*
X159Y1508D02*
X181Y1508D01*
X206Y1508D02*
X229Y1508D01*
X1258Y1508D02*
X1281Y1508D01*
X1306Y1508D02*
X1328Y1508D01*
X158Y1507D02*
X180Y1507D01*
X208Y1507D02*
X230Y1507D01*
X1257Y1507D02*
X1279Y1507D01*
X1307Y1507D02*
X1329Y1507D01*
X158Y1506D02*
X179Y1506D01*
X209Y1506D02*
X230Y1506D01*
X1257Y1506D02*
X1279Y1506D01*
X1308Y1506D02*
X1329Y1506D01*
X158Y1505D02*
X179Y1505D01*
X209Y1505D02*
X230Y1505D01*
X1257Y1505D02*
X1278Y1505D01*
X1309Y1505D02*
X1330Y1505D01*
X157Y1504D02*
X178Y1504D01*
X210Y1504D02*
X231Y1504D01*
X1256Y1504D02*
X1277Y1504D01*
X1309Y1504D02*
X1330Y1504D01*
X157Y1503D02*
X177Y1503D01*
X211Y1503D02*
X231Y1503D01*
X1256Y1503D02*
X1276Y1503D01*
X1310Y1503D02*
X1330Y1503D01*
X157Y1502D02*
X176Y1502D01*
X211Y1502D02*
X231Y1502D01*
X1256Y1502D02*
X1276Y1502D01*
X1311Y1502D02*
X1330Y1502D01*
X156Y1501D02*
X176Y1501D01*
X212Y1501D02*
X231Y1501D01*
X1256Y1501D02*
X1275Y1501D01*
X1311Y1501D02*
X1331Y1501D01*
X156Y1500D02*
X176Y1500D01*
X212Y1500D02*
X232Y1500D01*
X1255Y1500D02*
X1275Y1500D01*
X1312Y1500D02*
X1331Y1500D01*
X156Y1499D02*
X175Y1499D01*
X213Y1499D02*
X232Y1499D01*
X1255Y1499D02*
X1274Y1499D01*
X1312Y1499D02*
X1331Y1499D01*
X156Y1498D02*
X175Y1498D01*
X213Y1498D02*
X232Y1498D01*
X1255Y1498D02*
X1274Y1498D01*
X1312Y1498D02*
X1331Y1498D01*
X156Y1497D02*
X175Y1497D01*
X213Y1497D02*
X232Y1497D01*
X1255Y1497D02*
X1274Y1497D01*
X1312Y1497D02*
X1331Y1497D01*
X156Y1496D02*
X175Y1496D01*
X213Y1496D02*
X232Y1496D01*
X1255Y1496D02*
X1274Y1496D01*
X1312Y1496D02*
X1331Y1496D01*
X156Y1495D02*
X175Y1495D01*
X213Y1495D02*
X232Y1495D01*
X1255Y1495D02*
X1274Y1495D01*
X1312Y1495D02*
X1331Y1495D01*
X156Y1494D02*
X175Y1494D01*
X213Y1494D02*
X232Y1494D01*
X1255Y1494D02*
X1274Y1494D01*
X1313Y1494D02*
X1331Y1494D01*
X156Y1493D02*
X175Y1493D01*
X213Y1493D02*
X232Y1493D01*
X1255Y1493D02*
X1274Y1493D01*
X1313Y1493D02*
X1332Y1493D01*
X156Y1492D02*
X175Y1492D01*
X213Y1492D02*
X232Y1492D01*
X1255Y1492D02*
X1274Y1492D01*
X1312Y1492D02*
X1331Y1492D01*
X156Y1491D02*
X175Y1491D01*
X213Y1491D02*
X232Y1491D01*
X1255Y1491D02*
X1274Y1491D01*
X1312Y1491D02*
X1331Y1491D01*
X156Y1490D02*
X175Y1490D01*
X213Y1490D02*
X232Y1490D01*
X1255Y1490D02*
X1274Y1490D01*
X1312Y1490D02*
X1331Y1490D01*
X156Y1489D02*
X175Y1489D01*
X213Y1489D02*
X232Y1489D01*
X1255Y1489D02*
X1274Y1489D01*
X1312Y1489D02*
X1331Y1489D01*
X156Y1488D02*
X175Y1488D01*
X213Y1488D02*
X232Y1488D01*
X1255Y1488D02*
X1274Y1488D01*
X1312Y1488D02*
X1331Y1488D01*
X156Y1487D02*
X176Y1487D01*
X212Y1487D02*
X232Y1487D01*
X1255Y1487D02*
X1275Y1487D01*
X1312Y1487D02*
X1331Y1487D01*
X156Y1486D02*
X176Y1486D01*
X212Y1486D02*
X232Y1486D01*
X1256Y1486D02*
X1275Y1486D01*
X1311Y1486D02*
X1331Y1486D01*
X157Y1485D02*
X176Y1485D01*
X212Y1485D02*
X231Y1485D01*
X1256Y1485D02*
X1276Y1485D01*
X1311Y1485D02*
X1330Y1485D01*
X157Y1484D02*
X177Y1484D01*
X211Y1484D02*
X231Y1484D01*
X1256Y1484D02*
X1276Y1484D01*
X1310Y1484D02*
X1330Y1484D01*
X157Y1483D02*
X178Y1483D01*
X210Y1483D02*
X231Y1483D01*
X1256Y1483D02*
X1277Y1483D01*
X1310Y1483D02*
X1330Y1483D01*
X157Y1482D02*
X178Y1482D01*
X210Y1482D02*
X230Y1482D01*
X1257Y1482D02*
X1278Y1482D01*
X1309Y1482D02*
X1330Y1482D01*
X158Y1481D02*
X179Y1481D01*
X209Y1481D02*
X230Y1481D01*
X1257Y1481D02*
X1278Y1481D01*
X1308Y1481D02*
X1329Y1481D01*
X158Y1480D02*
X180Y1480D01*
X208Y1480D02*
X230Y1480D01*
X1257Y1480D02*
X1279Y1480D01*
X1307Y1480D02*
X1329Y1480D01*
X159Y1479D02*
X181Y1479D01*
X207Y1479D02*
X229Y1479D01*
X1258Y1479D02*
X1280Y1479D01*
X1306Y1479D02*
X1329Y1479D01*
X159Y1478D02*
X182Y1478D01*
X206Y1478D02*
X229Y1478D01*
X1258Y1478D02*
X1282Y1478D01*
X1305Y1478D02*
X1328Y1478D01*
X159Y1477D02*
X184Y1477D01*
X204Y1477D02*
X228Y1477D01*
X1259Y1477D02*
X1283Y1477D01*
X1303Y1477D02*
X1328Y1477D01*
X160Y1476D02*
X186Y1476D01*
X202Y1476D02*
X228Y1476D01*
X1259Y1476D02*
X1285Y1476D01*
X1302Y1476D02*
X1327Y1476D01*
X160Y1475D02*
X189Y1475D01*
X199Y1475D02*
X228Y1475D01*
X1260Y1475D02*
X1288Y1475D01*
X1299Y1475D02*
X1327Y1475D01*
X161Y1474D02*
X227Y1474D01*
X1260Y1474D02*
X1326Y1474D01*
X162Y1473D02*
X226Y1473D01*
X1261Y1473D02*
X1326Y1473D01*
X162Y1472D02*
X226Y1472D01*
X1261Y1472D02*
X1325Y1472D01*
X163Y1471D02*
X225Y1471D01*
X1262Y1471D02*
X1324Y1471D01*
X164Y1470D02*
X224Y1470D01*
X1263Y1470D02*
X1324Y1470D01*
X164Y1469D02*
X224Y1469D01*
X1263Y1469D02*
X1323Y1469D01*
X165Y1468D02*
X223Y1468D01*
X1264Y1468D02*
X1322Y1468D01*
X166Y1467D02*
X222Y1467D01*
X1265Y1467D02*
X1321Y1467D01*
X167Y1466D02*
X221Y1466D01*
X1266Y1466D02*
X1320Y1466D01*
X168Y1465D02*
X220Y1465D01*
X1267Y1465D02*
X1319Y1465D01*
X169Y1464D02*
X219Y1464D01*
X1268Y1464D02*
X1318Y1464D01*
X170Y1463D02*
X218Y1463D01*
X1270Y1463D02*
X1317Y1463D01*
X172Y1462D02*
X216Y1462D01*
X1271Y1462D02*
X1315Y1462D01*
X173Y1461D02*
X215Y1461D01*
X1272Y1461D02*
X1314Y1461D01*
X175Y1460D02*
X213Y1460D01*
X1274Y1460D02*
X1312Y1460D01*
X177Y1459D02*
X211Y1459D01*
X1276Y1459D02*
X1310Y1459D01*
X179Y1458D02*
X209Y1458D01*
X1278Y1458D02*
X1308Y1458D01*
X181Y1457D02*
X207Y1457D01*
X1281Y1457D02*
X1306Y1457D01*
X184Y1456D02*
X204Y1456D01*
X1284Y1456D02*
X1303Y1456D01*
X189Y1455D02*
X199Y1455D01*
X1288Y1455D02*
X1298Y1455D01*
X190Y1432D02*
X198Y1432D01*
X1289Y1432D02*
X1297Y1432D01*
X185Y1431D02*
X203Y1431D01*
X1284Y1431D02*
X1302Y1431D01*
X182Y1430D02*
X206Y1430D01*
X1281Y1430D02*
X1305Y1430D01*
X179Y1429D02*
X209Y1429D01*
X1278Y1429D02*
X1308Y1429D01*
X177Y1428D02*
X211Y1428D01*
X1276Y1428D02*
X1310Y1428D01*
X175Y1427D02*
X213Y1427D01*
X1274Y1427D02*
X1312Y1427D01*
X173Y1426D02*
X214Y1426D01*
X1273Y1426D02*
X1314Y1426D01*
X172Y1425D02*
X216Y1425D01*
X1271Y1425D02*
X1315Y1425D01*
X171Y1424D02*
X217Y1424D01*
X1270Y1424D02*
X1317Y1424D01*
X169Y1423D02*
X219Y1423D01*
X1268Y1423D02*
X1318Y1423D01*
X168Y1422D02*
X220Y1422D01*
X1267Y1422D02*
X1319Y1422D01*
X167Y1421D02*
X221Y1421D01*
X1266Y1421D02*
X1320Y1421D01*
X166Y1420D02*
X222Y1420D01*
X1265Y1420D02*
X1321Y1420D01*
X165Y1419D02*
X223Y1419D01*
X1264Y1419D02*
X1322Y1419D01*
X164Y1418D02*
X224Y1418D01*
X1264Y1418D02*
X1323Y1418D01*
X164Y1417D02*
X224Y1417D01*
X1263Y1417D02*
X1323Y1417D01*
X163Y1416D02*
X225Y1416D01*
X1262Y1416D02*
X1324Y1416D01*
X162Y1415D02*
X226Y1415D01*
X1261Y1415D02*
X1325Y1415D01*
X162Y1414D02*
X226Y1414D01*
X1261Y1414D02*
X1325Y1414D01*
X161Y1413D02*
X227Y1413D01*
X1260Y1413D02*
X1326Y1413D01*
X160Y1412D02*
X189Y1412D01*
X199Y1412D02*
X227Y1412D01*
X1260Y1412D02*
X1288Y1412D01*
X1298Y1412D02*
X1327Y1412D01*
X160Y1411D02*
X186Y1411D01*
X202Y1411D02*
X228Y1411D01*
X1259Y1411D02*
X1285Y1411D01*
X1301Y1411D02*
X1327Y1411D01*
X160Y1410D02*
X184Y1410D01*
X204Y1410D02*
X228Y1410D01*
X1259Y1410D02*
X1283Y1410D01*
X1303Y1410D02*
X1328Y1410D01*
X159Y1409D02*
X183Y1409D01*
X205Y1409D02*
X229Y1409D01*
X1258Y1409D02*
X1282Y1409D01*
X1305Y1409D02*
X1328Y1409D01*
X159Y1408D02*
X181Y1408D01*
X207Y1408D02*
X229Y1408D01*
X1258Y1408D02*
X1281Y1408D01*
X1306Y1408D02*
X1328Y1408D01*
X158Y1407D02*
X180Y1407D01*
X208Y1407D02*
X230Y1407D01*
X1257Y1407D02*
X1279Y1407D01*
X1307Y1407D02*
X1329Y1407D01*
X158Y1406D02*
X179Y1406D01*
X209Y1406D02*
X230Y1406D01*
X1257Y1406D02*
X1279Y1406D01*
X1308Y1406D02*
X1329Y1406D01*
X158Y1405D02*
X178Y1405D01*
X209Y1405D02*
X230Y1405D01*
X1257Y1405D02*
X1278Y1405D01*
X1309Y1405D02*
X1330Y1405D01*
X157Y1404D02*
X178Y1404D01*
X210Y1404D02*
X231Y1404D01*
X1256Y1404D02*
X1277Y1404D01*
X1309Y1404D02*
X1330Y1404D01*
X157Y1403D02*
X177Y1403D01*
X211Y1403D02*
X231Y1403D01*
X1256Y1403D02*
X1276Y1403D01*
X1310Y1403D02*
X1330Y1403D01*
X157Y1402D02*
X176Y1402D01*
X211Y1402D02*
X231Y1402D01*
X1256Y1402D02*
X1276Y1402D01*
X1311Y1402D02*
X1330Y1402D01*
X156Y1401D02*
X176Y1401D01*
X212Y1401D02*
X231Y1401D01*
X1256Y1401D02*
X1275Y1401D01*
X1311Y1401D02*
X1331Y1401D01*
X156Y1400D02*
X176Y1400D01*
X212Y1400D02*
X232Y1400D01*
X1255Y1400D02*
X1275Y1400D01*
X1312Y1400D02*
X1331Y1400D01*
X156Y1399D02*
X175Y1399D01*
X213Y1399D02*
X232Y1399D01*
X1255Y1399D02*
X1274Y1399D01*
X1312Y1399D02*
X1331Y1399D01*
X156Y1398D02*
X175Y1398D01*
X213Y1398D02*
X232Y1398D01*
X1255Y1398D02*
X1274Y1398D01*
X1312Y1398D02*
X1331Y1398D01*
X156Y1397D02*
X175Y1397D01*
X213Y1397D02*
X232Y1397D01*
X1255Y1397D02*
X1274Y1397D01*
X1312Y1397D02*
X1331Y1397D01*
X156Y1396D02*
X175Y1396D01*
X213Y1396D02*
X232Y1396D01*
X1255Y1396D02*
X1274Y1396D01*
X1312Y1396D02*
X1331Y1396D01*
X156Y1395D02*
X175Y1395D01*
X213Y1395D02*
X232Y1395D01*
X1255Y1395D02*
X1274Y1395D01*
X1312Y1395D02*
X1331Y1395D01*
X156Y1394D02*
X175Y1394D01*
X213Y1394D02*
X232Y1394D01*
X1255Y1394D02*
X1274Y1394D01*
X1313Y1394D02*
X1332Y1394D01*
X156Y1393D02*
X175Y1393D01*
X213Y1393D02*
X232Y1393D01*
X1255Y1393D02*
X1274Y1393D01*
X1313Y1393D02*
X1332Y1393D01*
X156Y1392D02*
X175Y1392D01*
X213Y1392D02*
X232Y1392D01*
X1255Y1392D02*
X1274Y1392D01*
X1312Y1392D02*
X1331Y1392D01*
X156Y1391D02*
X175Y1391D01*
X213Y1391D02*
X232Y1391D01*
X1255Y1391D02*
X1274Y1391D01*
X1312Y1391D02*
X1331Y1391D01*
X156Y1390D02*
X175Y1390D01*
X213Y1390D02*
X232Y1390D01*
X1255Y1390D02*
X1274Y1390D01*
X1312Y1390D02*
X1331Y1390D01*
X156Y1389D02*
X175Y1389D01*
X213Y1389D02*
X232Y1389D01*
X1255Y1389D02*
X1274Y1389D01*
X1312Y1389D02*
X1331Y1389D01*
X156Y1388D02*
X175Y1388D01*
X213Y1388D02*
X232Y1388D01*
X1255Y1388D02*
X1274Y1388D01*
X1312Y1388D02*
X1331Y1388D01*
X156Y1387D02*
X176Y1387D01*
X212Y1387D02*
X232Y1387D01*
X1255Y1387D02*
X1275Y1387D01*
X1312Y1387D02*
X1331Y1387D01*
X156Y1386D02*
X176Y1386D01*
X212Y1386D02*
X232Y1386D01*
X1256Y1386D02*
X1275Y1386D01*
X1311Y1386D02*
X1331Y1386D01*
X157Y1385D02*
X176Y1385D01*
X212Y1385D02*
X231Y1385D01*
X1256Y1385D02*
X1276Y1385D01*
X1311Y1385D02*
X1330Y1385D01*
X157Y1384D02*
X177Y1384D01*
X211Y1384D02*
X231Y1384D01*
X1256Y1384D02*
X1276Y1384D01*
X1310Y1384D02*
X1330Y1384D01*
X157Y1383D02*
X178Y1383D01*
X210Y1383D02*
X231Y1383D01*
X1256Y1383D02*
X1277Y1383D01*
X1310Y1383D02*
X1330Y1383D01*
X157Y1382D02*
X178Y1382D01*
X210Y1382D02*
X230Y1382D01*
X1257Y1382D02*
X1278Y1382D01*
X1309Y1382D02*
X1330Y1382D01*
X158Y1381D02*
X179Y1381D01*
X209Y1381D02*
X230Y1381D01*
X1257Y1381D02*
X1278Y1381D01*
X1308Y1381D02*
X1329Y1381D01*
X158Y1380D02*
X180Y1380D01*
X208Y1380D02*
X230Y1380D01*
X1257Y1380D02*
X1279Y1380D01*
X1307Y1380D02*
X1329Y1380D01*
X159Y1379D02*
X181Y1379D01*
X207Y1379D02*
X229Y1379D01*
X1258Y1379D02*
X1280Y1379D01*
X1306Y1379D02*
X1329Y1379D01*
X159Y1378D02*
X182Y1378D01*
X205Y1378D02*
X229Y1378D01*
X1258Y1378D02*
X1282Y1378D01*
X1305Y1378D02*
X1328Y1378D01*
X159Y1377D02*
X184Y1377D01*
X204Y1377D02*
X228Y1377D01*
X1259Y1377D02*
X1283Y1377D01*
X1303Y1377D02*
X1328Y1377D01*
X160Y1376D02*
X186Y1376D01*
X202Y1376D02*
X228Y1376D01*
X1259Y1376D02*
X1285Y1376D01*
X1301Y1376D02*
X1327Y1376D01*
X160Y1375D02*
X189Y1375D01*
X199Y1375D02*
X228Y1375D01*
X1260Y1375D02*
X1288Y1375D01*
X1298Y1375D02*
X1327Y1375D01*
X161Y1374D02*
X227Y1374D01*
X1260Y1374D02*
X1326Y1374D01*
X162Y1373D02*
X226Y1373D01*
X1261Y1373D02*
X1326Y1373D01*
X162Y1372D02*
X226Y1372D01*
X1261Y1372D02*
X1325Y1372D01*
X163Y1371D02*
X225Y1371D01*
X1262Y1371D02*
X1324Y1371D01*
X164Y1370D02*
X224Y1370D01*
X1263Y1370D02*
X1324Y1370D01*
X164Y1369D02*
X224Y1369D01*
X1263Y1369D02*
X1323Y1369D01*
X165Y1368D02*
X223Y1368D01*
X1264Y1368D02*
X1322Y1368D01*
X166Y1367D02*
X222Y1367D01*
X1265Y1367D02*
X1321Y1367D01*
X167Y1366D02*
X221Y1366D01*
X1266Y1366D02*
X1320Y1366D01*
X168Y1365D02*
X220Y1365D01*
X1267Y1365D02*
X1319Y1365D01*
X169Y1364D02*
X219Y1364D01*
X1268Y1364D02*
X1318Y1364D01*
X170Y1363D02*
X218Y1363D01*
X1270Y1363D02*
X1317Y1363D01*
X172Y1362D02*
X216Y1362D01*
X1271Y1362D02*
X1315Y1362D01*
X173Y1361D02*
X215Y1361D01*
X1272Y1361D02*
X1314Y1361D01*
X175Y1360D02*
X213Y1360D01*
X1274Y1360D02*
X1312Y1360D01*
X177Y1359D02*
X211Y1359D01*
X1276Y1359D02*
X1310Y1359D01*
X179Y1358D02*
X209Y1358D01*
X1278Y1358D02*
X1308Y1358D01*
X181Y1357D02*
X206Y1357D01*
X1281Y1357D02*
X1306Y1357D01*
X185Y1356D02*
X203Y1356D01*
X1284Y1356D02*
X1303Y1356D01*
X189Y1355D02*
X199Y1355D01*
X1288Y1355D02*
X1298Y1355D01*
X190Y1332D02*
X198Y1332D01*
X1289Y1332D02*
X1298Y1332D01*
X185Y1331D02*
X203Y1331D01*
X1284Y1331D02*
X1302Y1331D01*
X182Y1330D02*
X206Y1330D01*
X1281Y1330D02*
X1305Y1330D01*
X179Y1329D02*
X209Y1329D01*
X1278Y1329D02*
X1308Y1329D01*
X177Y1328D02*
X211Y1328D01*
X1276Y1328D02*
X1310Y1328D01*
X175Y1327D02*
X213Y1327D01*
X1274Y1327D02*
X1312Y1327D01*
X173Y1326D02*
X215Y1326D01*
X1273Y1326D02*
X1314Y1326D01*
X172Y1325D02*
X216Y1325D01*
X1271Y1325D02*
X1315Y1325D01*
X170Y1324D02*
X217Y1324D01*
X1270Y1324D02*
X1317Y1324D01*
X169Y1323D02*
X219Y1323D01*
X1268Y1323D02*
X1318Y1323D01*
X168Y1322D02*
X220Y1322D01*
X1267Y1322D02*
X1319Y1322D01*
X167Y1321D02*
X221Y1321D01*
X1266Y1321D02*
X1320Y1321D01*
X166Y1320D02*
X222Y1320D01*
X1265Y1320D02*
X1321Y1320D01*
X165Y1319D02*
X223Y1319D01*
X1264Y1319D02*
X1322Y1319D01*
X164Y1318D02*
X224Y1318D01*
X1264Y1318D02*
X1323Y1318D01*
X164Y1317D02*
X224Y1317D01*
X1263Y1317D02*
X1323Y1317D01*
X163Y1316D02*
X225Y1316D01*
X1262Y1316D02*
X1324Y1316D01*
X162Y1315D02*
X226Y1315D01*
X1261Y1315D02*
X1325Y1315D01*
X162Y1314D02*
X226Y1314D01*
X1261Y1314D02*
X1325Y1314D01*
X161Y1313D02*
X227Y1313D01*
X1260Y1313D02*
X1326Y1313D01*
X160Y1312D02*
X189Y1312D01*
X199Y1312D02*
X227Y1312D01*
X1260Y1312D02*
X1288Y1312D01*
X1298Y1312D02*
X1327Y1312D01*
X160Y1311D02*
X186Y1311D01*
X202Y1311D02*
X228Y1311D01*
X1259Y1311D02*
X1285Y1311D01*
X1301Y1311D02*
X1327Y1311D01*
X160Y1310D02*
X184Y1310D01*
X204Y1310D02*
X228Y1310D01*
X1259Y1310D02*
X1283Y1310D01*
X1303Y1310D02*
X1328Y1310D01*
X159Y1309D02*
X183Y1309D01*
X205Y1309D02*
X229Y1309D01*
X1258Y1309D02*
X1282Y1309D01*
X1305Y1309D02*
X1328Y1309D01*
X159Y1308D02*
X181Y1308D01*
X207Y1308D02*
X229Y1308D01*
X1258Y1308D02*
X1281Y1308D01*
X1306Y1308D02*
X1328Y1308D01*
X158Y1307D02*
X180Y1307D01*
X208Y1307D02*
X230Y1307D01*
X1257Y1307D02*
X1279Y1307D01*
X1307Y1307D02*
X1329Y1307D01*
X158Y1306D02*
X179Y1306D01*
X209Y1306D02*
X230Y1306D01*
X1257Y1306D02*
X1279Y1306D01*
X1308Y1306D02*
X1329Y1306D01*
X158Y1305D02*
X178Y1305D01*
X209Y1305D02*
X230Y1305D01*
X1257Y1305D02*
X1278Y1305D01*
X1309Y1305D02*
X1330Y1305D01*
X157Y1304D02*
X178Y1304D01*
X210Y1304D02*
X231Y1304D01*
X1256Y1304D02*
X1277Y1304D01*
X1309Y1304D02*
X1330Y1304D01*
X157Y1303D02*
X177Y1303D01*
X211Y1303D02*
X231Y1303D01*
X1256Y1303D02*
X1276Y1303D01*
X1310Y1303D02*
X1330Y1303D01*
X157Y1302D02*
X176Y1302D01*
X211Y1302D02*
X231Y1302D01*
X1256Y1302D02*
X1276Y1302D01*
X1311Y1302D02*
X1330Y1302D01*
X156Y1301D02*
X176Y1301D01*
X212Y1301D02*
X232Y1301D01*
X1256Y1301D02*
X1275Y1301D01*
X1311Y1301D02*
X1331Y1301D01*
X156Y1300D02*
X176Y1300D01*
X212Y1300D02*
X232Y1300D01*
X1255Y1300D02*
X1275Y1300D01*
X1312Y1300D02*
X1331Y1300D01*
X156Y1299D02*
X175Y1299D01*
X213Y1299D02*
X232Y1299D01*
X1255Y1299D02*
X1274Y1299D01*
X1312Y1299D02*
X1331Y1299D01*
X156Y1298D02*
X175Y1298D01*
X213Y1298D02*
X232Y1298D01*
X1255Y1298D02*
X1274Y1298D01*
X1312Y1298D02*
X1331Y1298D01*
X156Y1297D02*
X175Y1297D01*
X213Y1297D02*
X232Y1297D01*
X1255Y1297D02*
X1274Y1297D01*
X1312Y1297D02*
X1331Y1297D01*
X156Y1296D02*
X175Y1296D01*
X213Y1296D02*
X232Y1296D01*
X1255Y1296D02*
X1274Y1296D01*
X1312Y1296D02*
X1331Y1296D01*
X156Y1295D02*
X175Y1295D01*
X213Y1295D02*
X232Y1295D01*
X1255Y1295D02*
X1274Y1295D01*
X1312Y1295D02*
X1331Y1295D01*
X156Y1294D02*
X175Y1294D01*
X213Y1294D02*
X232Y1294D01*
X1255Y1294D02*
X1274Y1294D01*
X1313Y1294D02*
X1332Y1294D01*
X156Y1293D02*
X175Y1293D01*
X213Y1293D02*
X232Y1293D01*
X1255Y1293D02*
X1274Y1293D01*
X1313Y1293D02*
X1332Y1293D01*
X156Y1292D02*
X175Y1292D01*
X213Y1292D02*
X232Y1292D01*
X1255Y1292D02*
X1274Y1292D01*
X1312Y1292D02*
X1331Y1292D01*
X156Y1291D02*
X175Y1291D01*
X213Y1291D02*
X232Y1291D01*
X1255Y1291D02*
X1274Y1291D01*
X1312Y1291D02*
X1331Y1291D01*
X156Y1290D02*
X175Y1290D01*
X213Y1290D02*
X232Y1290D01*
X1255Y1290D02*
X1274Y1290D01*
X1312Y1290D02*
X1331Y1290D01*
X156Y1289D02*
X175Y1289D01*
X213Y1289D02*
X232Y1289D01*
X1255Y1289D02*
X1274Y1289D01*
X1312Y1289D02*
X1331Y1289D01*
X156Y1288D02*
X175Y1288D01*
X213Y1288D02*
X232Y1288D01*
X1255Y1288D02*
X1274Y1288D01*
X1312Y1288D02*
X1331Y1288D01*
X156Y1287D02*
X176Y1287D01*
X212Y1287D02*
X232Y1287D01*
X1255Y1287D02*
X1275Y1287D01*
X1312Y1287D02*
X1331Y1287D01*
X156Y1286D02*
X176Y1286D01*
X212Y1286D02*
X232Y1286D01*
X1256Y1286D02*
X1275Y1286D01*
X1311Y1286D02*
X1331Y1286D01*
X157Y1285D02*
X176Y1285D01*
X212Y1285D02*
X231Y1285D01*
X1256Y1285D02*
X1276Y1285D01*
X1311Y1285D02*
X1330Y1285D01*
X157Y1284D02*
X177Y1284D01*
X211Y1284D02*
X231Y1284D01*
X1256Y1284D02*
X1276Y1284D01*
X1310Y1284D02*
X1330Y1284D01*
X157Y1283D02*
X178Y1283D01*
X210Y1283D02*
X231Y1283D01*
X1256Y1283D02*
X1277Y1283D01*
X1310Y1283D02*
X1330Y1283D01*
X157Y1282D02*
X178Y1282D01*
X210Y1282D02*
X230Y1282D01*
X1257Y1282D02*
X1278Y1282D01*
X1309Y1282D02*
X1330Y1282D01*
X158Y1281D02*
X179Y1281D01*
X209Y1281D02*
X230Y1281D01*
X1257Y1281D02*
X1278Y1281D01*
X1308Y1281D02*
X1329Y1281D01*
X158Y1280D02*
X180Y1280D01*
X208Y1280D02*
X230Y1280D01*
X1257Y1280D02*
X1279Y1280D01*
X1307Y1280D02*
X1329Y1280D01*
X159Y1279D02*
X181Y1279D01*
X207Y1279D02*
X229Y1279D01*
X1258Y1279D02*
X1280Y1279D01*
X1306Y1279D02*
X1329Y1279D01*
X159Y1278D02*
X182Y1278D01*
X205Y1278D02*
X229Y1278D01*
X1258Y1278D02*
X1282Y1278D01*
X1305Y1278D02*
X1328Y1278D01*
X159Y1277D02*
X184Y1277D01*
X204Y1277D02*
X228Y1277D01*
X1259Y1277D02*
X1283Y1277D01*
X1303Y1277D02*
X1328Y1277D01*
X160Y1276D02*
X186Y1276D01*
X202Y1276D02*
X228Y1276D01*
X1259Y1276D02*
X1285Y1276D01*
X1301Y1276D02*
X1327Y1276D01*
X160Y1275D02*
X189Y1275D01*
X199Y1275D02*
X227Y1275D01*
X1260Y1275D02*
X1288Y1275D01*
X1298Y1275D02*
X1327Y1275D01*
X161Y1274D02*
X227Y1274D01*
X1260Y1274D02*
X1326Y1274D01*
X162Y1273D02*
X226Y1273D01*
X1261Y1273D02*
X1326Y1273D01*
X162Y1272D02*
X226Y1272D01*
X1261Y1272D02*
X1325Y1272D01*
X163Y1271D02*
X225Y1271D01*
X1262Y1271D02*
X1324Y1271D01*
X164Y1270D02*
X224Y1270D01*
X1263Y1270D02*
X1324Y1270D01*
X164Y1269D02*
X224Y1269D01*
X1264Y1269D02*
X1323Y1269D01*
X165Y1268D02*
X223Y1268D01*
X1264Y1268D02*
X1322Y1268D01*
X166Y1267D02*
X222Y1267D01*
X1265Y1267D02*
X1321Y1267D01*
X167Y1266D02*
X221Y1266D01*
X1266Y1266D02*
X1320Y1266D01*
X168Y1265D02*
X220Y1265D01*
X1267Y1265D02*
X1319Y1265D01*
X169Y1264D02*
X219Y1264D01*
X1268Y1264D02*
X1318Y1264D01*
X170Y1263D02*
X217Y1263D01*
X1270Y1263D02*
X1317Y1263D01*
X172Y1262D02*
X216Y1262D01*
X1271Y1262D02*
X1315Y1262D01*
X173Y1261D02*
X215Y1261D01*
X1272Y1261D02*
X1314Y1261D01*
X175Y1260D02*
X213Y1260D01*
X1274Y1260D02*
X1312Y1260D01*
X177Y1259D02*
X211Y1259D01*
X1276Y1259D02*
X1310Y1259D01*
X179Y1258D02*
X209Y1258D01*
X1278Y1258D02*
X1308Y1258D01*
X182Y1257D02*
X206Y1257D01*
X1281Y1257D02*
X1306Y1257D01*
X185Y1256D02*
X203Y1256D01*
X1284Y1256D02*
X1302Y1256D01*
X189Y1255D02*
X199Y1255D01*
X1289Y1255D02*
X1298Y1255D01*
X189Y1232D02*
X199Y1232D01*
X1289Y1232D02*
X1298Y1232D01*
X185Y1231D02*
X203Y1231D01*
X1284Y1231D02*
X1302Y1231D01*
X182Y1230D02*
X206Y1230D01*
X1281Y1230D02*
X1306Y1230D01*
X179Y1229D02*
X209Y1229D01*
X1278Y1229D02*
X1308Y1229D01*
X177Y1228D02*
X211Y1228D01*
X1276Y1228D02*
X1310Y1228D01*
X175Y1227D02*
X213Y1227D01*
X1274Y1227D02*
X1312Y1227D01*
X173Y1226D02*
X215Y1226D01*
X1273Y1226D02*
X1314Y1226D01*
X172Y1225D02*
X216Y1225D01*
X1271Y1225D02*
X1315Y1225D01*
X170Y1224D02*
X217Y1224D01*
X1270Y1224D02*
X1317Y1224D01*
X169Y1223D02*
X219Y1223D01*
X1268Y1223D02*
X1318Y1223D01*
X168Y1222D02*
X220Y1222D01*
X1267Y1222D02*
X1319Y1222D01*
X167Y1221D02*
X221Y1221D01*
X1266Y1221D02*
X1320Y1221D01*
X166Y1220D02*
X222Y1220D01*
X1265Y1220D02*
X1321Y1220D01*
X165Y1219D02*
X223Y1219D01*
X1264Y1219D02*
X1322Y1219D01*
X164Y1218D02*
X224Y1218D01*
X1264Y1218D02*
X1323Y1218D01*
X164Y1217D02*
X224Y1217D01*
X1263Y1217D02*
X1324Y1217D01*
X163Y1216D02*
X225Y1216D01*
X1262Y1216D02*
X1324Y1216D01*
X162Y1215D02*
X226Y1215D01*
X1261Y1215D02*
X1325Y1215D01*
X162Y1214D02*
X226Y1214D01*
X1261Y1214D02*
X1326Y1214D01*
X161Y1213D02*
X227Y1213D01*
X1260Y1213D02*
X1326Y1213D01*
X160Y1212D02*
X189Y1212D01*
X199Y1212D02*
X227Y1212D01*
X1260Y1212D02*
X1288Y1212D01*
X1298Y1212D02*
X1327Y1212D01*
X160Y1211D02*
X186Y1211D01*
X202Y1211D02*
X228Y1211D01*
X1259Y1211D02*
X1285Y1211D01*
X1301Y1211D02*
X1327Y1211D01*
X159Y1210D02*
X184Y1210D01*
X204Y1210D02*
X228Y1210D01*
X1259Y1210D02*
X1283Y1210D01*
X1303Y1210D02*
X1328Y1210D01*
X159Y1209D02*
X182Y1209D01*
X205Y1209D02*
X229Y1209D01*
X1258Y1209D02*
X1282Y1209D01*
X1305Y1209D02*
X1328Y1209D01*
X159Y1208D02*
X181Y1208D01*
X207Y1208D02*
X229Y1208D01*
X1258Y1208D02*
X1281Y1208D01*
X1306Y1208D02*
X1329Y1208D01*
X158Y1207D02*
X180Y1207D01*
X208Y1207D02*
X230Y1207D01*
X1257Y1207D02*
X1279Y1207D01*
X1307Y1207D02*
X1329Y1207D01*
X158Y1206D02*
X179Y1206D01*
X209Y1206D02*
X230Y1206D01*
X1257Y1206D02*
X1278Y1206D01*
X1308Y1206D02*
X1329Y1206D01*
X157Y1205D02*
X178Y1205D01*
X210Y1205D02*
X230Y1205D01*
X1257Y1205D02*
X1278Y1205D01*
X1309Y1205D02*
X1330Y1205D01*
X157Y1204D02*
X178Y1204D01*
X210Y1204D02*
X231Y1204D01*
X1256Y1204D02*
X1277Y1204D01*
X1310Y1204D02*
X1330Y1204D01*
X157Y1203D02*
X177Y1203D01*
X211Y1203D02*
X231Y1203D01*
X1256Y1203D02*
X1276Y1203D01*
X1310Y1203D02*
X1330Y1203D01*
X157Y1202D02*
X176Y1202D01*
X211Y1202D02*
X231Y1202D01*
X1256Y1202D02*
X1276Y1202D01*
X1311Y1202D02*
X1330Y1202D01*
X156Y1201D02*
X176Y1201D01*
X212Y1201D02*
X232Y1201D01*
X1256Y1201D02*
X1275Y1201D01*
X1311Y1201D02*
X1331Y1201D01*
X156Y1200D02*
X176Y1200D01*
X212Y1200D02*
X232Y1200D01*
X1255Y1200D02*
X1275Y1200D01*
X1312Y1200D02*
X1331Y1200D01*
X156Y1199D02*
X175Y1199D01*
X213Y1199D02*
X232Y1199D01*
X1255Y1199D02*
X1274Y1199D01*
X1312Y1199D02*
X1331Y1199D01*
X156Y1198D02*
X175Y1198D01*
X213Y1198D02*
X232Y1198D01*
X1255Y1198D02*
X1274Y1198D01*
X1312Y1198D02*
X1331Y1198D01*
X156Y1197D02*
X175Y1197D01*
X213Y1197D02*
X232Y1197D01*
X1255Y1197D02*
X1274Y1197D01*
X1312Y1197D02*
X1331Y1197D01*
X156Y1196D02*
X175Y1196D01*
X213Y1196D02*
X232Y1196D01*
X1255Y1196D02*
X1274Y1196D01*
X1312Y1196D02*
X1331Y1196D01*
X156Y1195D02*
X175Y1195D01*
X213Y1195D02*
X232Y1195D01*
X1255Y1195D02*
X1274Y1195D01*
X1312Y1195D02*
X1331Y1195D01*
X156Y1194D02*
X175Y1194D01*
X213Y1194D02*
X232Y1194D01*
X1255Y1194D02*
X1274Y1194D01*
X1313Y1194D02*
X1332Y1194D01*
X156Y1193D02*
X175Y1193D01*
X213Y1193D02*
X232Y1193D01*
X1255Y1193D02*
X1274Y1193D01*
X1313Y1193D02*
X1332Y1193D01*
X156Y1192D02*
X175Y1192D01*
X213Y1192D02*
X232Y1192D01*
X1255Y1192D02*
X1274Y1192D01*
X1312Y1192D02*
X1331Y1192D01*
X156Y1191D02*
X175Y1191D01*
X213Y1191D02*
X232Y1191D01*
X1255Y1191D02*
X1274Y1191D01*
X1312Y1191D02*
X1331Y1191D01*
X156Y1190D02*
X175Y1190D01*
X213Y1190D02*
X232Y1190D01*
X1255Y1190D02*
X1274Y1190D01*
X1312Y1190D02*
X1331Y1190D01*
X156Y1189D02*
X175Y1189D01*
X213Y1189D02*
X232Y1189D01*
X1255Y1189D02*
X1274Y1189D01*
X1312Y1189D02*
X1331Y1189D01*
X156Y1188D02*
X175Y1188D01*
X213Y1188D02*
X232Y1188D01*
X1255Y1188D02*
X1274Y1188D01*
X1312Y1188D02*
X1331Y1188D01*
X156Y1187D02*
X176Y1187D01*
X212Y1187D02*
X232Y1187D01*
X1255Y1187D02*
X1275Y1187D01*
X1312Y1187D02*
X1331Y1187D01*
X156Y1186D02*
X176Y1186D01*
X212Y1186D02*
X232Y1186D01*
X1256Y1186D02*
X1275Y1186D01*
X1311Y1186D02*
X1331Y1186D01*
X157Y1185D02*
X176Y1185D01*
X211Y1185D02*
X231Y1185D01*
X1256Y1185D02*
X1276Y1185D01*
X1311Y1185D02*
X1330Y1185D01*
X157Y1184D02*
X177Y1184D01*
X211Y1184D02*
X231Y1184D01*
X1256Y1184D02*
X1276Y1184D01*
X1310Y1184D02*
X1330Y1184D01*
X157Y1183D02*
X178Y1183D01*
X210Y1183D02*
X231Y1183D01*
X1256Y1183D02*
X1277Y1183D01*
X1310Y1183D02*
X1330Y1183D01*
X158Y1182D02*
X178Y1182D01*
X209Y1182D02*
X230Y1182D01*
X1257Y1182D02*
X1278Y1182D01*
X1309Y1182D02*
X1330Y1182D01*
X158Y1181D02*
X179Y1181D01*
X209Y1181D02*
X230Y1181D01*
X1257Y1181D02*
X1278Y1181D01*
X1308Y1181D02*
X1329Y1181D01*
X158Y1180D02*
X180Y1180D01*
X208Y1180D02*
X230Y1180D01*
X1257Y1180D02*
X1279Y1180D01*
X1307Y1180D02*
X1329Y1180D01*
X159Y1179D02*
X181Y1179D01*
X207Y1179D02*
X229Y1179D01*
X1258Y1179D02*
X1281Y1179D01*
X1306Y1179D02*
X1329Y1179D01*
X159Y1178D02*
X183Y1178D01*
X205Y1178D02*
X229Y1178D01*
X1258Y1178D02*
X1282Y1178D01*
X1305Y1178D02*
X1328Y1178D01*
X159Y1177D02*
X184Y1177D01*
X204Y1177D02*
X228Y1177D01*
X1259Y1177D02*
X1283Y1177D01*
X1303Y1177D02*
X1328Y1177D01*
X160Y1176D02*
X186Y1176D01*
X202Y1176D02*
X228Y1176D01*
X1259Y1176D02*
X1285Y1176D01*
X1301Y1176D02*
X1327Y1176D01*
X160Y1175D02*
X189Y1175D01*
X199Y1175D02*
X227Y1175D01*
X1260Y1175D02*
X1288Y1175D01*
X1298Y1175D02*
X1327Y1175D01*
X161Y1174D02*
X227Y1174D01*
X1260Y1174D02*
X1326Y1174D01*
X162Y1173D02*
X226Y1173D01*
X1261Y1173D02*
X1326Y1173D01*
X162Y1172D02*
X226Y1172D01*
X1261Y1172D02*
X1325Y1172D01*
X163Y1171D02*
X225Y1171D01*
X1262Y1171D02*
X1324Y1171D01*
X164Y1170D02*
X224Y1170D01*
X1263Y1170D02*
X1324Y1170D01*
X164Y1169D02*
X224Y1169D01*
X1264Y1169D02*
X1323Y1169D01*
X165Y1168D02*
X223Y1168D01*
X1264Y1168D02*
X1322Y1168D01*
X166Y1167D02*
X222Y1167D01*
X1265Y1167D02*
X1321Y1167D01*
X167Y1166D02*
X221Y1166D01*
X1266Y1166D02*
X1320Y1166D01*
X168Y1165D02*
X220Y1165D01*
X1267Y1165D02*
X1319Y1165D01*
X169Y1164D02*
X219Y1164D01*
X1268Y1164D02*
X1318Y1164D01*
X170Y1163D02*
X217Y1163D01*
X1270Y1163D02*
X1317Y1163D01*
X172Y1162D02*
X216Y1162D01*
X1271Y1162D02*
X1315Y1162D01*
X173Y1161D02*
X215Y1161D01*
X1273Y1161D02*
X1314Y1161D01*
X175Y1160D02*
X213Y1160D01*
X1274Y1160D02*
X1312Y1160D01*
X177Y1159D02*
X211Y1159D01*
X1276Y1159D02*
X1310Y1159D01*
X179Y1158D02*
X209Y1158D01*
X1278Y1158D02*
X1308Y1158D01*
X182Y1157D02*
X206Y1157D01*
X1281Y1157D02*
X1305Y1157D01*
X185Y1156D02*
X203Y1156D01*
X1284Y1156D02*
X1302Y1156D01*
X190Y1155D02*
X198Y1155D01*
X1289Y1155D02*
X1298Y1155D01*
X189Y1132D02*
X199Y1132D01*
X1288Y1132D02*
X1298Y1132D01*
X185Y1131D02*
X203Y1131D01*
X1284Y1131D02*
X1303Y1131D01*
X181Y1130D02*
X206Y1130D01*
X1281Y1130D02*
X1306Y1130D01*
X179Y1129D02*
X209Y1129D01*
X1278Y1129D02*
X1308Y1129D01*
X177Y1128D02*
X211Y1128D01*
X1276Y1128D02*
X1310Y1128D01*
X175Y1127D02*
X213Y1127D01*
X1274Y1127D02*
X1312Y1127D01*
X173Y1126D02*
X215Y1126D01*
X1272Y1126D02*
X1314Y1126D01*
X172Y1125D02*
X216Y1125D01*
X1271Y1125D02*
X1315Y1125D01*
X170Y1124D02*
X218Y1124D01*
X1270Y1124D02*
X1317Y1124D01*
X169Y1123D02*
X219Y1123D01*
X1268Y1123D02*
X1318Y1123D01*
X168Y1122D02*
X220Y1122D01*
X1267Y1122D02*
X1319Y1122D01*
X167Y1121D02*
X221Y1121D01*
X1266Y1121D02*
X1320Y1121D01*
X166Y1120D02*
X222Y1120D01*
X1265Y1120D02*
X1321Y1120D01*
X165Y1119D02*
X223Y1119D01*
X1264Y1119D02*
X1322Y1119D01*
X164Y1118D02*
X224Y1118D01*
X1263Y1118D02*
X1323Y1118D01*
X164Y1117D02*
X224Y1117D01*
X1263Y1117D02*
X1324Y1117D01*
X163Y1116D02*
X225Y1116D01*
X1262Y1116D02*
X1324Y1116D01*
X162Y1115D02*
X226Y1115D01*
X1261Y1115D02*
X1325Y1115D01*
X162Y1114D02*
X226Y1114D01*
X1261Y1114D02*
X1326Y1114D01*
X161Y1113D02*
X227Y1113D01*
X1260Y1113D02*
X1326Y1113D01*
X160Y1112D02*
X189Y1112D01*
X199Y1112D02*
X227Y1112D01*
X1260Y1112D02*
X1288Y1112D01*
X1298Y1112D02*
X1327Y1112D01*
X160Y1111D02*
X186Y1111D01*
X202Y1111D02*
X228Y1111D01*
X1259Y1111D02*
X1285Y1111D01*
X1301Y1111D02*
X1327Y1111D01*
X159Y1110D02*
X184Y1110D01*
X204Y1110D02*
X228Y1110D01*
X1259Y1110D02*
X1283Y1110D01*
X1303Y1110D02*
X1328Y1110D01*
X159Y1109D02*
X182Y1109D01*
X205Y1109D02*
X229Y1109D01*
X1258Y1109D02*
X1282Y1109D01*
X1305Y1109D02*
X1328Y1109D01*
X159Y1108D02*
X181Y1108D01*
X207Y1108D02*
X229Y1108D01*
X1258Y1108D02*
X1280Y1108D01*
X1306Y1108D02*
X1329Y1108D01*
X158Y1107D02*
X180Y1107D01*
X208Y1107D02*
X230Y1107D01*
X1257Y1107D02*
X1279Y1107D01*
X1307Y1107D02*
X1329Y1107D01*
X158Y1106D02*
X179Y1106D01*
X209Y1106D02*
X230Y1106D01*
X1257Y1106D02*
X1278Y1106D01*
X1308Y1106D02*
X1329Y1106D01*
X157Y1105D02*
X178Y1105D01*
X210Y1105D02*
X230Y1105D01*
X1257Y1105D02*
X1278Y1105D01*
X1309Y1105D02*
X1330Y1105D01*
X157Y1104D02*
X178Y1104D01*
X210Y1104D02*
X231Y1104D01*
X1256Y1104D02*
X1277Y1104D01*
X1310Y1104D02*
X1330Y1104D01*
X157Y1103D02*
X177Y1103D01*
X211Y1103D02*
X231Y1103D01*
X1256Y1103D02*
X1276Y1103D01*
X1310Y1103D02*
X1330Y1103D01*
X157Y1102D02*
X176Y1102D01*
X212Y1102D02*
X231Y1102D01*
X1256Y1102D02*
X1276Y1102D01*
X1311Y1102D02*
X1330Y1102D01*
X156Y1101D02*
X176Y1101D01*
X212Y1101D02*
X232Y1101D01*
X1256Y1101D02*
X1275Y1101D01*
X1311Y1101D02*
X1331Y1101D01*
X156Y1100D02*
X176Y1100D01*
X212Y1100D02*
X232Y1100D01*
X1255Y1100D02*
X1275Y1100D01*
X1312Y1100D02*
X1331Y1100D01*
X156Y1099D02*
X175Y1099D01*
X213Y1099D02*
X232Y1099D01*
X1255Y1099D02*
X1274Y1099D01*
X1312Y1099D02*
X1331Y1099D01*
X156Y1098D02*
X175Y1098D01*
X213Y1098D02*
X232Y1098D01*
X1255Y1098D02*
X1274Y1098D01*
X1312Y1098D02*
X1331Y1098D01*
X156Y1097D02*
X175Y1097D01*
X213Y1097D02*
X232Y1097D01*
X1255Y1097D02*
X1274Y1097D01*
X1312Y1097D02*
X1331Y1097D01*
X156Y1096D02*
X175Y1096D01*
X213Y1096D02*
X232Y1096D01*
X1255Y1096D02*
X1274Y1096D01*
X1312Y1096D02*
X1331Y1096D01*
X156Y1095D02*
X175Y1095D01*
X213Y1095D02*
X232Y1095D01*
X1255Y1095D02*
X1274Y1095D01*
X1312Y1095D02*
X1331Y1095D01*
X156Y1094D02*
X175Y1094D01*
X213Y1094D02*
X232Y1094D01*
X1255Y1094D02*
X1274Y1094D01*
X1313Y1094D02*
X1332Y1094D01*
X156Y1093D02*
X175Y1093D01*
X213Y1093D02*
X232Y1093D01*
X1255Y1093D02*
X1274Y1093D01*
X1313Y1093D02*
X1332Y1093D01*
X156Y1092D02*
X175Y1092D01*
X213Y1092D02*
X232Y1092D01*
X1255Y1092D02*
X1274Y1092D01*
X1312Y1092D02*
X1331Y1092D01*
X156Y1091D02*
X175Y1091D01*
X213Y1091D02*
X232Y1091D01*
X1255Y1091D02*
X1274Y1091D01*
X1312Y1091D02*
X1331Y1091D01*
X156Y1090D02*
X175Y1090D01*
X213Y1090D02*
X232Y1090D01*
X1255Y1090D02*
X1274Y1090D01*
X1312Y1090D02*
X1331Y1090D01*
X156Y1089D02*
X175Y1089D01*
X213Y1089D02*
X232Y1089D01*
X1255Y1089D02*
X1274Y1089D01*
X1312Y1089D02*
X1331Y1089D01*
X156Y1088D02*
X175Y1088D01*
X213Y1088D02*
X232Y1088D01*
X1255Y1088D02*
X1274Y1088D01*
X1312Y1088D02*
X1331Y1088D01*
X156Y1087D02*
X176Y1087D01*
X212Y1087D02*
X232Y1087D01*
X1255Y1087D02*
X1275Y1087D01*
X1312Y1087D02*
X1331Y1087D01*
X156Y1086D02*
X176Y1086D01*
X212Y1086D02*
X231Y1086D01*
X1256Y1086D02*
X1275Y1086D01*
X1311Y1086D02*
X1331Y1086D01*
X157Y1085D02*
X176Y1085D01*
X211Y1085D02*
X231Y1085D01*
X1256Y1085D02*
X1276Y1085D01*
X1311Y1085D02*
X1330Y1085D01*
X157Y1084D02*
X177Y1084D01*
X211Y1084D02*
X231Y1084D01*
X1256Y1084D02*
X1276Y1084D01*
X1310Y1084D02*
X1330Y1084D01*
X157Y1083D02*
X178Y1083D01*
X210Y1083D02*
X231Y1083D01*
X1256Y1083D02*
X1277Y1083D01*
X1309Y1083D02*
X1330Y1083D01*
X158Y1082D02*
X178Y1082D01*
X209Y1082D02*
X230Y1082D01*
X1257Y1082D02*
X1278Y1082D01*
X1309Y1082D02*
X1330Y1082D01*
X158Y1081D02*
X179Y1081D01*
X209Y1081D02*
X230Y1081D01*
X1257Y1081D02*
X1279Y1081D01*
X1308Y1081D02*
X1329Y1081D01*
X158Y1080D02*
X180Y1080D01*
X208Y1080D02*
X230Y1080D01*
X1257Y1080D02*
X1279Y1080D01*
X1307Y1080D02*
X1329Y1080D01*
X159Y1079D02*
X181Y1079D01*
X207Y1079D02*
X229Y1079D01*
X1258Y1079D02*
X1281Y1079D01*
X1306Y1079D02*
X1328Y1079D01*
X159Y1078D02*
X183Y1078D01*
X205Y1078D02*
X229Y1078D01*
X1258Y1078D02*
X1282Y1078D01*
X1305Y1078D02*
X1328Y1078D01*
X160Y1077D02*
X184Y1077D01*
X204Y1077D02*
X228Y1077D01*
X1259Y1077D02*
X1283Y1077D01*
X1303Y1077D02*
X1328Y1077D01*
X160Y1076D02*
X186Y1076D01*
X202Y1076D02*
X228Y1076D01*
X1259Y1076D02*
X1285Y1076D01*
X1301Y1076D02*
X1327Y1076D01*
X160Y1075D02*
X189Y1075D01*
X199Y1075D02*
X227Y1075D01*
X1260Y1075D02*
X1288Y1075D01*
X1298Y1075D02*
X1327Y1075D01*
X161Y1074D02*
X227Y1074D01*
X1260Y1074D02*
X1326Y1074D01*
X162Y1073D02*
X226Y1073D01*
X1261Y1073D02*
X1325Y1073D01*
X162Y1072D02*
X226Y1072D01*
X1261Y1072D02*
X1325Y1072D01*
X163Y1071D02*
X225Y1071D01*
X1262Y1071D02*
X1324Y1071D01*
X164Y1070D02*
X224Y1070D01*
X1263Y1070D02*
X1323Y1070D01*
X164Y1069D02*
X224Y1069D01*
X1264Y1069D02*
X1323Y1069D01*
X165Y1068D02*
X223Y1068D01*
X1264Y1068D02*
X1322Y1068D01*
X166Y1067D02*
X222Y1067D01*
X1265Y1067D02*
X1321Y1067D01*
X167Y1066D02*
X221Y1066D01*
X1266Y1066D02*
X1320Y1066D01*
X168Y1065D02*
X220Y1065D01*
X1267Y1065D02*
X1319Y1065D01*
X169Y1064D02*
X219Y1064D01*
X1268Y1064D02*
X1318Y1064D01*
X171Y1063D02*
X217Y1063D01*
X1270Y1063D02*
X1317Y1063D01*
X172Y1062D02*
X216Y1062D01*
X1271Y1062D02*
X1315Y1062D01*
X173Y1061D02*
X215Y1061D01*
X1273Y1061D02*
X1314Y1061D01*
X175Y1060D02*
X213Y1060D01*
X1274Y1060D02*
X1312Y1060D01*
X177Y1059D02*
X211Y1059D01*
X1276Y1059D02*
X1310Y1059D01*
X179Y1058D02*
X209Y1058D01*
X1278Y1058D02*
X1308Y1058D01*
X182Y1057D02*
X206Y1057D01*
X1281Y1057D02*
X1305Y1057D01*
X185Y1056D02*
X203Y1056D01*
X1284Y1056D02*
X1302Y1056D01*
X190Y1055D02*
X198Y1055D01*
X1289Y1055D02*
X1297Y1055D01*
X194Y1032D02*
X194Y1032D01*
X1293Y1032D02*
X1293Y1032D01*
X186Y1031D02*
X202Y1031D01*
X1285Y1031D02*
X1301Y1031D01*
X183Y1030D02*
X205Y1030D01*
X1282Y1030D02*
X1305Y1030D01*
X180Y1029D02*
X208Y1029D01*
X1279Y1029D02*
X1307Y1029D01*
X178Y1028D02*
X210Y1028D01*
X1277Y1028D02*
X1309Y1028D01*
X176Y1027D02*
X212Y1027D01*
X1275Y1027D02*
X1311Y1027D01*
X174Y1026D02*
X214Y1026D01*
X1273Y1026D02*
X1313Y1026D01*
X172Y1025D02*
X216Y1025D01*
X1272Y1025D02*
X1315Y1025D01*
X171Y1024D02*
X217Y1024D01*
X1270Y1024D02*
X1316Y1024D01*
X170Y1023D02*
X218Y1023D01*
X1269Y1023D02*
X1317Y1023D01*
X168Y1022D02*
X219Y1022D01*
X1268Y1022D02*
X1319Y1022D01*
X167Y1021D02*
X221Y1021D01*
X1267Y1021D02*
X1320Y1021D01*
X166Y1020D02*
X222Y1020D01*
X1266Y1020D02*
X1321Y1020D01*
X166Y1019D02*
X222Y1019D01*
X1265Y1019D02*
X1322Y1019D01*
X165Y1018D02*
X223Y1018D01*
X1264Y1018D02*
X1322Y1018D01*
X164Y1017D02*
X224Y1017D01*
X1263Y1017D02*
X1323Y1017D01*
X163Y1016D02*
X225Y1016D01*
X1262Y1016D02*
X1324Y1016D01*
X162Y1015D02*
X225Y1015D01*
X1262Y1015D02*
X1325Y1015D01*
X162Y1014D02*
X226Y1014D01*
X1261Y1014D02*
X1325Y1014D01*
X161Y1013D02*
X227Y1013D01*
X1260Y1013D02*
X1326Y1013D01*
X161Y1012D02*
X192Y1012D01*
X195Y1012D02*
X227Y1012D01*
X1260Y1012D02*
X1292Y1012D01*
X1295Y1012D02*
X1326Y1012D01*
X160Y1011D02*
X187Y1011D01*
X201Y1011D02*
X228Y1011D01*
X1259Y1011D02*
X1286Y1011D01*
X1300Y1011D02*
X1327Y1011D01*
X160Y1010D02*
X185Y1010D01*
X203Y1010D02*
X228Y1010D01*
X1259Y1010D02*
X1284Y1010D01*
X1302Y1010D02*
X1327Y1010D01*
X159Y1009D02*
X183Y1009D01*
X205Y1009D02*
X229Y1009D01*
X1258Y1009D02*
X1282Y1009D01*
X1304Y1009D02*
X1328Y1009D01*
X159Y1008D02*
X182Y1008D01*
X206Y1008D02*
X229Y1008D01*
X1258Y1008D02*
X1281Y1008D01*
X1305Y1008D02*
X1328Y1008D01*
X158Y1007D02*
X181Y1007D01*
X207Y1007D02*
X230Y1007D01*
X1258Y1007D02*
X1280Y1007D01*
X1306Y1007D02*
X1329Y1007D01*
X158Y1006D02*
X180Y1006D01*
X208Y1006D02*
X230Y1006D01*
X1257Y1006D02*
X1279Y1006D01*
X1307Y1006D02*
X1329Y1006D01*
X158Y1005D02*
X179Y1005D01*
X209Y1005D02*
X230Y1005D01*
X1257Y1005D02*
X1278Y1005D01*
X1308Y1005D02*
X1329Y1005D01*
X157Y1004D02*
X178Y1004D01*
X210Y1004D02*
X231Y1004D01*
X1257Y1004D02*
X1277Y1004D01*
X1309Y1004D02*
X1330Y1004D01*
X157Y1003D02*
X177Y1003D01*
X211Y1003D02*
X231Y1003D01*
X1256Y1003D02*
X1276Y1003D01*
X1310Y1003D02*
X1330Y1003D01*
X157Y1002D02*
X177Y1002D01*
X211Y1002D02*
X231Y1002D01*
X1256Y1002D02*
X1276Y1002D01*
X1310Y1002D02*
X1330Y1002D01*
X157Y1001D02*
X176Y1001D01*
X212Y1001D02*
X231Y1001D01*
X1256Y1001D02*
X1275Y1001D01*
X1311Y1001D02*
X1331Y1001D01*
X156Y1000D02*
X176Y1000D01*
X212Y1000D02*
X232Y1000D01*
X1256Y1000D02*
X1275Y1000D01*
X1311Y1000D02*
X1331Y1000D01*
X156Y999D02*
X175Y999D01*
X213Y999D02*
X232Y999D01*
X1255Y999D02*
X1275Y999D01*
X1312Y999D02*
X1331Y999D01*
X156Y998D02*
X175Y998D01*
X213Y998D02*
X232Y998D01*
X1255Y998D02*
X1274Y998D01*
X1312Y998D02*
X1331Y998D01*
X156Y997D02*
X175Y997D01*
X213Y997D02*
X232Y997D01*
X1255Y997D02*
X1274Y997D01*
X1312Y997D02*
X1331Y997D01*
X156Y996D02*
X175Y996D01*
X213Y996D02*
X232Y996D01*
X1255Y996D02*
X1274Y996D01*
X1312Y996D02*
X1331Y996D01*
X156Y995D02*
X175Y995D01*
X213Y995D02*
X232Y995D01*
X1255Y995D02*
X1274Y995D01*
X1312Y995D02*
X1331Y995D01*
X156Y994D02*
X175Y994D01*
X213Y994D02*
X232Y994D01*
X1255Y994D02*
X1274Y994D01*
X1313Y994D02*
X1331Y994D01*
X156Y993D02*
X175Y993D01*
X213Y993D02*
X232Y993D01*
X1255Y993D02*
X1274Y993D01*
X1313Y993D02*
X1332Y993D01*
X156Y992D02*
X175Y992D01*
X213Y992D02*
X232Y992D01*
X1255Y992D02*
X1274Y992D01*
X1312Y992D02*
X1331Y992D01*
X156Y991D02*
X175Y991D01*
X213Y991D02*
X232Y991D01*
X1255Y991D02*
X1274Y991D01*
X1312Y991D02*
X1331Y991D01*
X156Y990D02*
X175Y990D01*
X213Y990D02*
X232Y990D01*
X1255Y990D02*
X1274Y990D01*
X1312Y990D02*
X1331Y990D01*
X156Y989D02*
X175Y989D01*
X213Y989D02*
X232Y989D01*
X1255Y989D02*
X1274Y989D01*
X1312Y989D02*
X1331Y989D01*
X156Y988D02*
X175Y988D01*
X213Y988D02*
X232Y988D01*
X1255Y988D02*
X1274Y988D01*
X1312Y988D02*
X1331Y988D01*
X156Y987D02*
X175Y987D01*
X212Y987D02*
X232Y987D01*
X1255Y987D02*
X1275Y987D01*
X1312Y987D02*
X1331Y987D01*
X156Y986D02*
X176Y986D01*
X212Y986D02*
X232Y986D01*
X1256Y986D02*
X1275Y986D01*
X1311Y986D02*
X1331Y986D01*
X157Y985D02*
X176Y985D01*
X212Y985D02*
X231Y985D01*
X1256Y985D02*
X1275Y985D01*
X1311Y985D02*
X1331Y985D01*
X157Y984D02*
X177Y984D01*
X211Y984D02*
X231Y984D01*
X1256Y984D02*
X1276Y984D01*
X1310Y984D02*
X1330Y984D01*
X157Y983D02*
X177Y983D01*
X211Y983D02*
X231Y983D01*
X1256Y983D02*
X1277Y983D01*
X1310Y983D02*
X1330Y983D01*
X157Y982D02*
X178Y982D01*
X210Y982D02*
X231Y982D01*
X1257Y982D02*
X1277Y982D01*
X1309Y982D02*
X1330Y982D01*
X158Y981D02*
X179Y981D01*
X209Y981D02*
X230Y981D01*
X1257Y981D02*
X1278Y981D01*
X1308Y981D02*
X1329Y981D01*
X158Y980D02*
X180Y980D01*
X208Y980D02*
X230Y980D01*
X1257Y980D02*
X1279Y980D01*
X1307Y980D02*
X1329Y980D01*
X158Y979D02*
X181Y979D01*
X207Y979D02*
X229Y979D01*
X1258Y979D02*
X1280Y979D01*
X1306Y979D02*
X1329Y979D01*
X159Y978D02*
X182Y978D01*
X206Y978D02*
X229Y978D01*
X1258Y978D02*
X1281Y978D01*
X1305Y978D02*
X1328Y978D01*
X159Y977D02*
X183Y977D01*
X205Y977D02*
X229Y977D01*
X1258Y977D02*
X1283Y977D01*
X1304Y977D02*
X1328Y977D01*
X160Y976D02*
X185Y976D01*
X203Y976D02*
X228Y976D01*
X1259Y976D02*
X1284Y976D01*
X1302Y976D02*
X1327Y976D01*
X160Y975D02*
X188Y975D01*
X200Y975D02*
X228Y975D01*
X1259Y975D02*
X1287Y975D01*
X1300Y975D02*
X1327Y975D01*
X161Y974D02*
X227Y974D01*
X1260Y974D02*
X1326Y974D01*
X161Y973D02*
X227Y973D01*
X1261Y973D02*
X1326Y973D01*
X162Y972D02*
X226Y972D01*
X1261Y972D02*
X1325Y972D01*
X163Y971D02*
X225Y971D01*
X1262Y971D02*
X1325Y971D01*
X163Y970D02*
X225Y970D01*
X1263Y970D02*
X1324Y970D01*
X164Y969D02*
X224Y969D01*
X1263Y969D02*
X1323Y969D01*
X165Y968D02*
X223Y968D01*
X1264Y968D02*
X1322Y968D01*
X166Y967D02*
X222Y967D01*
X1265Y967D02*
X1321Y967D01*
X167Y966D02*
X221Y966D01*
X1266Y966D02*
X1321Y966D01*
X168Y965D02*
X220Y965D01*
X1267Y965D02*
X1319Y965D01*
X169Y964D02*
X219Y964D01*
X1268Y964D02*
X1318Y964D01*
X170Y963D02*
X218Y963D01*
X1269Y963D02*
X1317Y963D01*
X171Y962D02*
X217Y962D01*
X1270Y962D02*
X1316Y962D01*
X173Y961D02*
X215Y961D01*
X1272Y961D02*
X1314Y961D01*
X174Y960D02*
X214Y960D01*
X1274Y960D02*
X1313Y960D01*
X176Y959D02*
X212Y959D01*
X1275Y959D02*
X1311Y959D01*
X178Y958D02*
X210Y958D01*
X1277Y958D02*
X1309Y958D01*
X181Y957D02*
X207Y957D01*
X1280Y957D02*
X1307Y957D01*
X183Y956D02*
X205Y956D01*
X1283Y956D02*
X1304Y956D01*
X187Y955D02*
X201Y955D01*
X1286Y955D02*
X1300Y955D01*
X191Y932D02*
X197Y932D01*
X1290Y932D02*
X1296Y932D01*
X185Y931D02*
X202Y931D01*
X1285Y931D02*
X1302Y931D01*
X182Y930D02*
X206Y930D01*
X1281Y930D02*
X1305Y930D01*
X179Y929D02*
X208Y929D01*
X1279Y929D02*
X1308Y929D01*
X177Y928D02*
X211Y928D01*
X1277Y928D02*
X1310Y928D01*
X175Y927D02*
X213Y927D01*
X1275Y927D02*
X1312Y927D01*
X174Y926D02*
X214Y926D01*
X1273Y926D02*
X1313Y926D01*
X172Y925D02*
X216Y925D01*
X1271Y925D02*
X1315Y925D01*
X171Y924D02*
X217Y924D01*
X1270Y924D02*
X1316Y924D01*
X169Y923D02*
X219Y923D01*
X1269Y923D02*
X1318Y923D01*
X168Y922D02*
X220Y922D01*
X1267Y922D02*
X1319Y922D01*
X167Y921D02*
X221Y921D01*
X1266Y921D02*
X1320Y921D01*
X166Y920D02*
X222Y920D01*
X1265Y920D02*
X1321Y920D01*
X165Y919D02*
X223Y919D01*
X1265Y919D02*
X1322Y919D01*
X164Y918D02*
X223Y918D01*
X1264Y918D02*
X1323Y918D01*
X164Y917D02*
X224Y917D01*
X1263Y917D02*
X1323Y917D01*
X163Y916D02*
X225Y916D01*
X1262Y916D02*
X1324Y916D01*
X162Y915D02*
X226Y915D01*
X1262Y915D02*
X1325Y915D01*
X162Y914D02*
X226Y914D01*
X1261Y914D02*
X1325Y914D01*
X161Y913D02*
X227Y913D01*
X1260Y913D02*
X1326Y913D01*
X161Y912D02*
X190Y912D01*
X198Y912D02*
X227Y912D01*
X1260Y912D02*
X1289Y912D01*
X1297Y912D02*
X1327Y912D01*
X160Y911D02*
X186Y911D01*
X202Y911D02*
X228Y911D01*
X1259Y911D02*
X1285Y911D01*
X1301Y911D02*
X1327Y911D01*
X160Y910D02*
X184Y910D01*
X204Y910D02*
X228Y910D01*
X1259Y910D02*
X1284Y910D01*
X1303Y910D02*
X1328Y910D01*
X159Y909D02*
X183Y909D01*
X205Y909D02*
X229Y909D01*
X1258Y909D02*
X1282Y909D01*
X1304Y909D02*
X1328Y909D01*
X159Y908D02*
X182Y908D01*
X206Y908D02*
X229Y908D01*
X1258Y908D02*
X1281Y908D01*
X1306Y908D02*
X1328Y908D01*
X158Y907D02*
X180Y907D01*
X208Y907D02*
X230Y907D01*
X1257Y907D02*
X1280Y907D01*
X1307Y907D02*
X1329Y907D01*
X158Y906D02*
X179Y906D01*
X208Y906D02*
X230Y906D01*
X1257Y906D02*
X1279Y906D01*
X1308Y906D02*
X1329Y906D01*
X158Y905D02*
X179Y905D01*
X209Y905D02*
X230Y905D01*
X1257Y905D02*
X1278Y905D01*
X1309Y905D02*
X1330Y905D01*
X157Y904D02*
X178Y904D01*
X210Y904D02*
X231Y904D01*
X1256Y904D02*
X1277Y904D01*
X1309Y904D02*
X1330Y904D01*
X157Y903D02*
X177Y903D01*
X211Y903D02*
X231Y903D01*
X1256Y903D02*
X1276Y903D01*
X1310Y903D02*
X1330Y903D01*
X157Y902D02*
X177Y902D01*
X211Y902D02*
X231Y902D01*
X1256Y902D02*
X1276Y902D01*
X1311Y902D02*
X1330Y902D01*
X156Y901D02*
X176Y901D01*
X212Y901D02*
X231Y901D01*
X1256Y901D02*
X1275Y901D01*
X1311Y901D02*
X1331Y901D01*
X156Y900D02*
X176Y900D01*
X212Y900D02*
X232Y900D01*
X1255Y900D02*
X1275Y900D01*
X1311Y900D02*
X1331Y900D01*
X156Y899D02*
X175Y899D01*
X213Y899D02*
X232Y899D01*
X1255Y899D02*
X1275Y899D01*
X1312Y899D02*
X1331Y899D01*
X156Y898D02*
X175Y898D01*
X213Y898D02*
X232Y898D01*
X1255Y898D02*
X1274Y898D01*
X1312Y898D02*
X1331Y898D01*
X156Y897D02*
X175Y897D01*
X213Y897D02*
X232Y897D01*
X1255Y897D02*
X1274Y897D01*
X1312Y897D02*
X1331Y897D01*
X156Y896D02*
X175Y896D01*
X213Y896D02*
X232Y896D01*
X1255Y896D02*
X1274Y896D01*
X1312Y896D02*
X1331Y896D01*
X156Y895D02*
X175Y895D01*
X213Y895D02*
X232Y895D01*
X1255Y895D02*
X1274Y895D01*
X1312Y895D02*
X1331Y895D01*
X156Y894D02*
X175Y894D01*
X213Y894D02*
X232Y894D01*
X1255Y894D02*
X1274Y894D01*
X1313Y894D02*
X1331Y894D01*
X156Y893D02*
X175Y893D01*
X213Y893D02*
X232Y893D01*
X1255Y893D02*
X1274Y893D01*
X1313Y893D02*
X1332Y893D01*
X156Y892D02*
X175Y892D01*
X213Y892D02*
X232Y892D01*
X1255Y892D02*
X1274Y892D01*
X1312Y892D02*
X1331Y892D01*
X156Y891D02*
X175Y891D01*
X213Y891D02*
X232Y891D01*
X1255Y891D02*
X1274Y891D01*
X1312Y891D02*
X1331Y891D01*
X156Y890D02*
X175Y890D01*
X213Y890D02*
X232Y890D01*
X1255Y890D02*
X1274Y890D01*
X1312Y890D02*
X1331Y890D01*
X156Y889D02*
X175Y889D01*
X213Y889D02*
X232Y889D01*
X1255Y889D02*
X1274Y889D01*
X1312Y889D02*
X1331Y889D01*
X156Y888D02*
X175Y888D01*
X213Y888D02*
X232Y888D01*
X1255Y888D02*
X1274Y888D01*
X1312Y888D02*
X1331Y888D01*
X156Y887D02*
X176Y887D01*
X212Y887D02*
X232Y887D01*
X1255Y887D02*
X1275Y887D01*
X1312Y887D02*
X1331Y887D01*
X156Y886D02*
X176Y886D01*
X212Y886D02*
X232Y886D01*
X1256Y886D02*
X1275Y886D01*
X1311Y886D02*
X1331Y886D01*
X157Y885D02*
X176Y885D01*
X212Y885D02*
X231Y885D01*
X1256Y885D02*
X1276Y885D01*
X1311Y885D02*
X1331Y885D01*
X157Y884D02*
X177Y884D01*
X211Y884D02*
X231Y884D01*
X1256Y884D02*
X1276Y884D01*
X1310Y884D02*
X1330Y884D01*
X157Y883D02*
X177Y883D01*
X210Y883D02*
X231Y883D01*
X1256Y883D02*
X1277Y883D01*
X1310Y883D02*
X1330Y883D01*
X157Y882D02*
X178Y882D01*
X210Y882D02*
X231Y882D01*
X1257Y882D02*
X1277Y882D01*
X1309Y882D02*
X1330Y882D01*
X158Y881D02*
X179Y881D01*
X209Y881D02*
X230Y881D01*
X1257Y881D02*
X1278Y881D01*
X1308Y881D02*
X1329Y881D01*
X158Y880D02*
X180Y880D01*
X208Y880D02*
X230Y880D01*
X1257Y880D02*
X1279Y880D01*
X1307Y880D02*
X1329Y880D01*
X159Y879D02*
X181Y879D01*
X207Y879D02*
X229Y879D01*
X1258Y879D02*
X1280Y879D01*
X1306Y879D02*
X1329Y879D01*
X159Y878D02*
X182Y878D01*
X206Y878D02*
X229Y878D01*
X1258Y878D02*
X1281Y878D01*
X1305Y878D02*
X1328Y878D01*
X159Y877D02*
X184Y877D01*
X204Y877D02*
X229Y877D01*
X1259Y877D02*
X1283Y877D01*
X1303Y877D02*
X1328Y877D01*
X160Y876D02*
X185Y876D01*
X203Y876D02*
X228Y876D01*
X1259Y876D02*
X1285Y876D01*
X1302Y876D02*
X1327Y876D01*
X160Y875D02*
X188Y875D01*
X200Y875D02*
X228Y875D01*
X1260Y875D02*
X1287Y875D01*
X1299Y875D02*
X1327Y875D01*
X161Y874D02*
X227Y874D01*
X1260Y874D02*
X1326Y874D01*
X161Y873D02*
X226Y873D01*
X1261Y873D02*
X1326Y873D01*
X162Y872D02*
X226Y872D01*
X1261Y872D02*
X1325Y872D01*
X163Y871D02*
X225Y871D01*
X1262Y871D02*
X1324Y871D01*
X163Y870D02*
X224Y870D01*
X1263Y870D02*
X1324Y870D01*
X164Y869D02*
X224Y869D01*
X1263Y869D02*
X1323Y869D01*
X165Y868D02*
X223Y868D01*
X1264Y868D02*
X1322Y868D01*
X166Y867D02*
X222Y867D01*
X1265Y867D02*
X1321Y867D01*
X167Y866D02*
X221Y866D01*
X1266Y866D02*
X1320Y866D01*
X168Y865D02*
X220Y865D01*
X1267Y865D02*
X1319Y865D01*
X169Y864D02*
X219Y864D01*
X1268Y864D02*
X1318Y864D01*
X170Y863D02*
X218Y863D01*
X1269Y863D02*
X1317Y863D01*
X172Y862D02*
X216Y862D01*
X1271Y862D02*
X1316Y862D01*
X173Y861D02*
X215Y861D01*
X1272Y861D02*
X1314Y861D01*
X175Y860D02*
X213Y860D01*
X1274Y860D02*
X1312Y860D01*
X176Y859D02*
X211Y859D01*
X1276Y859D02*
X1311Y859D01*
X179Y858D02*
X209Y858D01*
X1278Y858D02*
X1309Y858D01*
X181Y857D02*
X207Y857D01*
X1280Y857D02*
X1306Y857D01*
X184Y856D02*
X204Y856D01*
X1283Y856D02*
X1303Y856D01*
X188Y855D02*
X200Y855D01*
X1287Y855D02*
X1299Y855D01*
X190Y832D02*
X198Y832D01*
X1289Y832D02*
X1298Y832D01*
X185Y831D02*
X203Y831D01*
X1284Y831D02*
X1302Y831D01*
X182Y830D02*
X206Y830D01*
X1281Y830D02*
X1305Y830D01*
X179Y829D02*
X209Y829D01*
X1278Y829D02*
X1308Y829D01*
X177Y828D02*
X211Y828D01*
X1276Y828D02*
X1310Y828D01*
X175Y827D02*
X213Y827D01*
X1274Y827D02*
X1312Y827D01*
X173Y826D02*
X215Y826D01*
X1273Y826D02*
X1314Y826D01*
X172Y825D02*
X216Y825D01*
X1271Y825D02*
X1315Y825D01*
X170Y824D02*
X217Y824D01*
X1270Y824D02*
X1317Y824D01*
X169Y823D02*
X219Y823D01*
X1268Y823D02*
X1318Y823D01*
X168Y822D02*
X220Y822D01*
X1267Y822D02*
X1319Y822D01*
X167Y821D02*
X221Y821D01*
X1266Y821D02*
X1320Y821D01*
X166Y820D02*
X222Y820D01*
X1265Y820D02*
X1321Y820D01*
X165Y819D02*
X223Y819D01*
X1264Y819D02*
X1322Y819D01*
X164Y818D02*
X224Y818D01*
X1264Y818D02*
X1323Y818D01*
X164Y817D02*
X224Y817D01*
X1263Y817D02*
X1323Y817D01*
X163Y816D02*
X225Y816D01*
X1262Y816D02*
X1324Y816D01*
X162Y815D02*
X226Y815D01*
X1261Y815D02*
X1325Y815D01*
X162Y814D02*
X226Y814D01*
X1261Y814D02*
X1325Y814D01*
X161Y813D02*
X227Y813D01*
X1260Y813D02*
X1326Y813D01*
X160Y812D02*
X189Y812D01*
X199Y812D02*
X227Y812D01*
X1260Y812D02*
X1288Y812D01*
X1298Y812D02*
X1327Y812D01*
X160Y811D02*
X186Y811D01*
X202Y811D02*
X228Y811D01*
X1259Y811D02*
X1285Y811D01*
X1301Y811D02*
X1327Y811D01*
X160Y810D02*
X184Y810D01*
X204Y810D02*
X228Y810D01*
X1259Y810D02*
X1283Y810D01*
X1303Y810D02*
X1328Y810D01*
X159Y809D02*
X183Y809D01*
X205Y809D02*
X229Y809D01*
X1258Y809D02*
X1282Y809D01*
X1305Y809D02*
X1328Y809D01*
X159Y808D02*
X181Y808D01*
X207Y808D02*
X229Y808D01*
X1258Y808D02*
X1281Y808D01*
X1306Y808D02*
X1328Y808D01*
X158Y807D02*
X180Y807D01*
X208Y807D02*
X230Y807D01*
X1257Y807D02*
X1279Y807D01*
X1307Y807D02*
X1329Y807D01*
X158Y806D02*
X179Y806D01*
X209Y806D02*
X230Y806D01*
X1257Y806D02*
X1278Y806D01*
X1308Y806D02*
X1329Y806D01*
X158Y805D02*
X178Y805D01*
X209Y805D02*
X230Y805D01*
X1257Y805D02*
X1278Y805D01*
X1309Y805D02*
X1330Y805D01*
X157Y804D02*
X178Y804D01*
X210Y804D02*
X231Y804D01*
X1256Y804D02*
X1277Y804D01*
X1309Y804D02*
X1330Y804D01*
X157Y803D02*
X177Y803D01*
X211Y803D02*
X231Y803D01*
X1256Y803D02*
X1276Y803D01*
X1310Y803D02*
X1330Y803D01*
X157Y802D02*
X176Y802D01*
X211Y802D02*
X231Y802D01*
X1256Y802D02*
X1276Y802D01*
X1311Y802D02*
X1330Y802D01*
X156Y801D02*
X176Y801D01*
X212Y801D02*
X232Y801D01*
X1256Y801D02*
X1275Y801D01*
X1311Y801D02*
X1331Y801D01*
X156Y800D02*
X176Y800D01*
X212Y800D02*
X232Y800D01*
X1255Y800D02*
X1275Y800D01*
X1312Y800D02*
X1331Y800D01*
X156Y799D02*
X175Y799D01*
X213Y799D02*
X232Y799D01*
X1255Y799D02*
X1274Y799D01*
X1312Y799D02*
X1331Y799D01*
X156Y798D02*
X175Y798D01*
X213Y798D02*
X232Y798D01*
X1255Y798D02*
X1274Y798D01*
X1312Y798D02*
X1331Y798D01*
X156Y797D02*
X175Y797D01*
X213Y797D02*
X232Y797D01*
X1255Y797D02*
X1274Y797D01*
X1312Y797D02*
X1331Y797D01*
X156Y796D02*
X175Y796D01*
X213Y796D02*
X232Y796D01*
X1255Y796D02*
X1274Y796D01*
X1312Y796D02*
X1331Y796D01*
X156Y795D02*
X175Y795D01*
X213Y795D02*
X232Y795D01*
X1255Y795D02*
X1274Y795D01*
X1312Y795D02*
X1331Y795D01*
X156Y794D02*
X175Y794D01*
X213Y794D02*
X232Y794D01*
X1255Y794D02*
X1274Y794D01*
X1313Y794D02*
X1332Y794D01*
X156Y793D02*
X175Y793D01*
X213Y793D02*
X232Y793D01*
X1255Y793D02*
X1274Y793D01*
X1313Y793D02*
X1332Y793D01*
X156Y792D02*
X175Y792D01*
X213Y792D02*
X232Y792D01*
X1255Y792D02*
X1274Y792D01*
X1312Y792D02*
X1331Y792D01*
X156Y791D02*
X175Y791D01*
X213Y791D02*
X232Y791D01*
X1255Y791D02*
X1274Y791D01*
X1312Y791D02*
X1331Y791D01*
X156Y790D02*
X175Y790D01*
X213Y790D02*
X232Y790D01*
X1255Y790D02*
X1274Y790D01*
X1312Y790D02*
X1331Y790D01*
X156Y789D02*
X175Y789D01*
X213Y789D02*
X232Y789D01*
X1255Y789D02*
X1274Y789D01*
X1312Y789D02*
X1331Y789D01*
X156Y788D02*
X175Y788D01*
X213Y788D02*
X232Y788D01*
X1255Y788D02*
X1274Y788D01*
X1312Y788D02*
X1331Y788D01*
X156Y787D02*
X176Y787D01*
X212Y787D02*
X232Y787D01*
X1255Y787D02*
X1275Y787D01*
X1312Y787D02*
X1331Y787D01*
X156Y786D02*
X176Y786D01*
X212Y786D02*
X232Y786D01*
X1256Y786D02*
X1275Y786D01*
X1311Y786D02*
X1331Y786D01*
X157Y785D02*
X176Y785D01*
X211Y785D02*
X231Y785D01*
X1256Y785D02*
X1276Y785D01*
X1311Y785D02*
X1330Y785D01*
X157Y784D02*
X177Y784D01*
X211Y784D02*
X231Y784D01*
X1256Y784D02*
X1276Y784D01*
X1310Y784D02*
X1330Y784D01*
X157Y783D02*
X178Y783D01*
X210Y783D02*
X231Y783D01*
X1256Y783D02*
X1277Y783D01*
X1310Y783D02*
X1330Y783D01*
X157Y782D02*
X178Y782D01*
X210Y782D02*
X230Y782D01*
X1257Y782D02*
X1278Y782D01*
X1309Y782D02*
X1330Y782D01*
X158Y781D02*
X179Y781D01*
X209Y781D02*
X230Y781D01*
X1257Y781D02*
X1278Y781D01*
X1308Y781D02*
X1329Y781D01*
X158Y780D02*
X180Y780D01*
X208Y780D02*
X230Y780D01*
X1257Y780D02*
X1279Y780D01*
X1307Y780D02*
X1329Y780D01*
X159Y779D02*
X181Y779D01*
X207Y779D02*
X229Y779D01*
X1258Y779D02*
X1281Y779D01*
X1306Y779D02*
X1329Y779D01*
X159Y778D02*
X182Y778D01*
X205Y778D02*
X229Y778D01*
X1258Y778D02*
X1282Y778D01*
X1305Y778D02*
X1328Y778D01*
X159Y777D02*
X184Y777D01*
X204Y777D02*
X228Y777D01*
X1259Y777D02*
X1283Y777D01*
X1303Y777D02*
X1328Y777D01*
X160Y776D02*
X186Y776D01*
X202Y776D02*
X228Y776D01*
X1259Y776D02*
X1285Y776D01*
X1301Y776D02*
X1327Y776D01*
X160Y775D02*
X189Y775D01*
X199Y775D02*
X227Y775D01*
X1260Y775D02*
X1288Y775D01*
X1298Y775D02*
X1327Y775D01*
X161Y774D02*
X227Y774D01*
X1260Y774D02*
X1326Y774D01*
X162Y773D02*
X226Y773D01*
X1261Y773D02*
X1326Y773D01*
X162Y772D02*
X226Y772D01*
X1261Y772D02*
X1325Y772D01*
X163Y771D02*
X225Y771D01*
X1262Y771D02*
X1324Y771D01*
X164Y770D02*
X224Y770D01*
X1263Y770D02*
X1324Y770D01*
X164Y769D02*
X224Y769D01*
X1264Y769D02*
X1323Y769D01*
X165Y768D02*
X223Y768D01*
X1264Y768D02*
X1322Y768D01*
X166Y767D02*
X222Y767D01*
X1265Y767D02*
X1321Y767D01*
X167Y766D02*
X221Y766D01*
X1266Y766D02*
X1320Y766D01*
X168Y765D02*
X220Y765D01*
X1267Y765D02*
X1319Y765D01*
X169Y764D02*
X219Y764D01*
X1268Y764D02*
X1318Y764D01*
X170Y763D02*
X217Y763D01*
X1270Y763D02*
X1317Y763D01*
X172Y762D02*
X216Y762D01*
X1271Y762D02*
X1315Y762D01*
X173Y761D02*
X215Y761D01*
X1272Y761D02*
X1314Y761D01*
X175Y760D02*
X213Y760D01*
X1274Y760D02*
X1312Y760D01*
X177Y759D02*
X211Y759D01*
X1276Y759D02*
X1310Y759D01*
X179Y758D02*
X209Y758D01*
X1278Y758D02*
X1308Y758D01*
X182Y757D02*
X206Y757D01*
X1281Y757D02*
X1306Y757D01*
X185Y756D02*
X203Y756D01*
X1284Y756D02*
X1302Y756D01*
X189Y755D02*
X199Y755D01*
X1289Y755D02*
X1298Y755D01*
X188Y732D02*
X200Y732D01*
X1288Y732D02*
X1299Y732D01*
X184Y731D02*
X204Y731D01*
X1283Y731D02*
X1303Y731D01*
X181Y730D02*
X207Y730D01*
X1280Y730D02*
X1306Y730D01*
X179Y729D02*
X209Y729D01*
X1278Y729D02*
X1308Y729D01*
X177Y728D02*
X211Y728D01*
X1276Y728D02*
X1311Y728D01*
X175Y727D02*
X213Y727D01*
X1274Y727D02*
X1312Y727D01*
X173Y726D02*
X215Y726D01*
X1272Y726D02*
X1314Y726D01*
X172Y725D02*
X216Y725D01*
X1271Y725D02*
X1316Y725D01*
X170Y724D02*
X218Y724D01*
X1269Y724D02*
X1317Y724D01*
X169Y723D02*
X219Y723D01*
X1268Y723D02*
X1318Y723D01*
X168Y722D02*
X220Y722D01*
X1267Y722D02*
X1319Y722D01*
X167Y721D02*
X221Y721D01*
X1266Y721D02*
X1320Y721D01*
X166Y720D02*
X222Y720D01*
X1265Y720D02*
X1321Y720D01*
X165Y719D02*
X223Y719D01*
X1264Y719D02*
X1322Y719D01*
X164Y718D02*
X224Y718D01*
X1263Y718D02*
X1323Y718D01*
X163Y717D02*
X224Y717D01*
X1263Y717D02*
X1324Y717D01*
X163Y716D02*
X225Y716D01*
X1262Y716D02*
X1324Y716D01*
X162Y715D02*
X226Y715D01*
X1261Y715D02*
X1325Y715D01*
X162Y714D02*
X226Y714D01*
X1261Y714D02*
X1326Y714D01*
X161Y713D02*
X227Y713D01*
X1260Y713D02*
X1326Y713D01*
X160Y712D02*
X188Y712D01*
X200Y712D02*
X228Y712D01*
X1260Y712D02*
X1288Y712D01*
X1299Y712D02*
X1327Y712D01*
X160Y711D02*
X185Y711D01*
X202Y711D02*
X228Y711D01*
X1259Y711D02*
X1285Y711D01*
X1302Y711D02*
X1327Y711D01*
X159Y710D02*
X184Y710D01*
X204Y710D02*
X229Y710D01*
X1259Y710D02*
X1283Y710D01*
X1303Y710D02*
X1328Y710D01*
X159Y709D02*
X182Y709D01*
X206Y709D02*
X229Y709D01*
X1258Y709D02*
X1281Y709D01*
X1305Y709D02*
X1328Y709D01*
X159Y708D02*
X181Y708D01*
X207Y708D02*
X229Y708D01*
X1258Y708D02*
X1280Y708D01*
X1306Y708D02*
X1329Y708D01*
X158Y707D02*
X180Y707D01*
X208Y707D02*
X230Y707D01*
X1257Y707D02*
X1279Y707D01*
X1307Y707D02*
X1329Y707D01*
X158Y706D02*
X179Y706D01*
X209Y706D02*
X230Y706D01*
X1257Y706D02*
X1278Y706D01*
X1308Y706D02*
X1329Y706D01*
X157Y705D02*
X178Y705D01*
X210Y705D02*
X230Y705D01*
X1257Y705D02*
X1277Y705D01*
X1309Y705D02*
X1330Y705D01*
X157Y704D02*
X177Y704D01*
X210Y704D02*
X231Y704D01*
X1256Y704D02*
X1277Y704D01*
X1310Y704D02*
X1330Y704D01*
X157Y703D02*
X177Y703D01*
X211Y703D02*
X231Y703D01*
X1256Y703D02*
X1276Y703D01*
X1310Y703D02*
X1330Y703D01*
X157Y702D02*
X176Y702D01*
X212Y702D02*
X231Y702D01*
X1256Y702D02*
X1276Y702D01*
X1311Y702D02*
X1330Y702D01*
X156Y701D02*
X176Y701D01*
X212Y701D02*
X232Y701D01*
X1256Y701D02*
X1275Y701D01*
X1311Y701D02*
X1331Y701D01*
X156Y700D02*
X176Y700D01*
X212Y700D02*
X232Y700D01*
X1255Y700D02*
X1275Y700D01*
X1312Y700D02*
X1331Y700D01*
X156Y699D02*
X175Y699D01*
X213Y699D02*
X232Y699D01*
X1255Y699D02*
X1274Y699D01*
X1312Y699D02*
X1331Y699D01*
X156Y698D02*
X175Y698D01*
X213Y698D02*
X232Y698D01*
X1255Y698D02*
X1274Y698D01*
X1312Y698D02*
X1331Y698D01*
X156Y697D02*
X175Y697D01*
X213Y697D02*
X232Y697D01*
X1255Y697D02*
X1274Y697D01*
X1312Y697D02*
X1331Y697D01*
X156Y696D02*
X175Y696D01*
X213Y696D02*
X232Y696D01*
X1255Y696D02*
X1274Y696D01*
X1312Y696D02*
X1331Y696D01*
X156Y695D02*
X175Y695D01*
X213Y695D02*
X232Y695D01*
X1255Y695D02*
X1274Y695D01*
X1312Y695D02*
X1331Y695D01*
X156Y694D02*
X175Y694D01*
X213Y694D02*
X232Y694D01*
X1255Y694D02*
X1274Y694D01*
X1313Y694D02*
X1332Y694D01*
X156Y693D02*
X175Y693D01*
X213Y693D02*
X232Y693D01*
X1255Y693D02*
X1274Y693D01*
X1313Y693D02*
X1331Y693D01*
X156Y692D02*
X175Y692D01*
X213Y692D02*
X232Y692D01*
X1255Y692D02*
X1274Y692D01*
X1312Y692D02*
X1331Y692D01*
X156Y691D02*
X175Y691D01*
X213Y691D02*
X232Y691D01*
X1255Y691D02*
X1274Y691D01*
X1312Y691D02*
X1331Y691D01*
X156Y690D02*
X175Y690D01*
X213Y690D02*
X232Y690D01*
X1255Y690D02*
X1274Y690D01*
X1312Y690D02*
X1331Y690D01*
X156Y689D02*
X175Y689D01*
X213Y689D02*
X232Y689D01*
X1255Y689D02*
X1274Y689D01*
X1312Y689D02*
X1331Y689D01*
X156Y688D02*
X175Y688D01*
X213Y688D02*
X232Y688D01*
X1255Y688D02*
X1275Y688D01*
X1312Y688D02*
X1331Y688D01*
X156Y687D02*
X176Y687D01*
X212Y687D02*
X232Y687D01*
X1255Y687D02*
X1275Y687D01*
X1311Y687D02*
X1331Y687D01*
X156Y686D02*
X176Y686D01*
X212Y686D02*
X231Y686D01*
X1256Y686D02*
X1275Y686D01*
X1311Y686D02*
X1331Y686D01*
X157Y685D02*
X177Y685D01*
X211Y685D02*
X231Y685D01*
X1256Y685D02*
X1276Y685D01*
X1311Y685D02*
X1330Y685D01*
X157Y684D02*
X177Y684D01*
X211Y684D02*
X231Y684D01*
X1256Y684D02*
X1276Y684D01*
X1310Y684D02*
X1330Y684D01*
X157Y683D02*
X178Y683D01*
X210Y683D02*
X231Y683D01*
X1256Y683D02*
X1277Y683D01*
X1309Y683D02*
X1330Y683D01*
X158Y682D02*
X179Y682D01*
X209Y682D02*
X230Y682D01*
X1257Y682D02*
X1278Y682D01*
X1309Y682D02*
X1330Y682D01*
X158Y681D02*
X179Y681D01*
X208Y681D02*
X230Y681D01*
X1257Y681D02*
X1279Y681D01*
X1308Y681D02*
X1329Y681D01*
X158Y680D02*
X180Y680D01*
X208Y680D02*
X230Y680D01*
X1257Y680D02*
X1280Y680D01*
X1307Y680D02*
X1329Y680D01*
X159Y679D02*
X182Y679D01*
X206Y679D02*
X229Y679D01*
X1258Y679D02*
X1281Y679D01*
X1306Y679D02*
X1328Y679D01*
X159Y678D02*
X183Y678D01*
X205Y678D02*
X229Y678D01*
X1258Y678D02*
X1282Y678D01*
X1304Y678D02*
X1328Y678D01*
X160Y677D02*
X184Y677D01*
X204Y677D02*
X228Y677D01*
X1259Y677D02*
X1283Y677D01*
X1303Y677D02*
X1328Y677D01*
X160Y676D02*
X186Y676D01*
X202Y676D02*
X228Y676D01*
X1259Y676D02*
X1285Y676D01*
X1301Y676D02*
X1327Y676D01*
X161Y675D02*
X190Y675D01*
X198Y675D02*
X227Y675D01*
X1260Y675D02*
X1289Y675D01*
X1297Y675D02*
X1327Y675D01*
X161Y674D02*
X227Y674D01*
X1260Y674D02*
X1326Y674D01*
X162Y673D02*
X226Y673D01*
X1261Y673D02*
X1325Y673D01*
X162Y672D02*
X226Y672D01*
X1262Y672D02*
X1325Y672D01*
X163Y671D02*
X225Y671D01*
X1262Y671D02*
X1324Y671D01*
X164Y670D02*
X224Y670D01*
X1263Y670D02*
X1323Y670D01*
X164Y669D02*
X223Y669D01*
X1264Y669D02*
X1323Y669D01*
X165Y668D02*
X223Y668D01*
X1265Y668D02*
X1322Y668D01*
X166Y667D02*
X222Y667D01*
X1265Y667D02*
X1321Y667D01*
X167Y666D02*
X221Y666D01*
X1266Y666D02*
X1320Y666D01*
X168Y665D02*
X220Y665D01*
X1267Y665D02*
X1319Y665D01*
X169Y664D02*
X219Y664D01*
X1269Y664D02*
X1318Y664D01*
X171Y663D02*
X217Y663D01*
X1270Y663D02*
X1316Y663D01*
X172Y662D02*
X216Y662D01*
X1271Y662D02*
X1315Y662D01*
X174Y661D02*
X214Y661D01*
X1273Y661D02*
X1313Y661D01*
X175Y660D02*
X213Y660D01*
X1275Y660D02*
X1312Y660D01*
X177Y659D02*
X211Y659D01*
X1276Y659D02*
X1310Y659D01*
X179Y658D02*
X209Y658D01*
X1279Y658D02*
X1308Y658D01*
X182Y657D02*
X206Y657D01*
X1281Y657D02*
X1305Y657D01*
X185Y656D02*
X203Y656D01*
X1285Y656D02*
X1302Y656D01*
X190Y655D02*
X197Y655D01*
X1290Y655D02*
X1297Y655D01*
D02*
G04 End of Copper0*
M02*