G04 MADE WITH FRITZING*
G04 WWW.FRITZING.ORG*
G04 DOUBLE SIDED*
G04 HOLES PLATED*
G04 CONTOUR ON CENTER OF CONTOUR VECTOR*
%ASAXBY*%
%FSLAX23Y23*%
%MOIN*%
%OFA0B0*%
%SFA1.0B1.0*%
%ADD10R,2.755910X2.755910X2.739910X2.739910*%
%ADD11C,0.008000*%
%ADD12R,0.001000X0.001000*%
%LNSILK0*%
G90*
G70*
G54D11*
X4Y2752D02*
X2752Y2752D01*
X2752Y4D01*
X4Y4D01*
X4Y2752D01*
D02*
G54D12*
X1013Y2259D02*
X1031Y2259D01*
X1064Y2259D02*
X1067Y2259D01*
X1013Y2258D02*
X1032Y2258D01*
X1063Y2258D02*
X1068Y2258D01*
X1013Y2257D02*
X1032Y2257D01*
X1063Y2257D02*
X1069Y2257D01*
X1013Y2256D02*
X1032Y2256D01*
X1063Y2256D02*
X1069Y2256D01*
X1013Y2255D02*
X1032Y2255D01*
X1062Y2255D02*
X1069Y2255D01*
X1013Y2254D02*
X1032Y2254D01*
X1062Y2254D02*
X1070Y2254D01*
X1013Y2253D02*
X1030Y2253D01*
X1062Y2253D02*
X1070Y2253D01*
X1013Y2252D02*
X1019Y2252D01*
X1061Y2252D02*
X1070Y2252D01*
X1013Y2251D02*
X1019Y2251D01*
X1061Y2251D02*
X1070Y2251D01*
X1013Y2250D02*
X1019Y2250D01*
X1061Y2250D02*
X1071Y2250D01*
X1013Y2249D02*
X1019Y2249D01*
X1060Y2249D02*
X1071Y2249D01*
X1013Y2248D02*
X1019Y2248D01*
X1060Y2248D02*
X1071Y2248D01*
X1013Y2247D02*
X1019Y2247D01*
X1060Y2247D02*
X1072Y2247D01*
X1013Y2246D02*
X1019Y2246D01*
X1060Y2246D02*
X1072Y2246D01*
X1013Y2245D02*
X1019Y2245D01*
X1059Y2245D02*
X1072Y2245D01*
X1013Y2244D02*
X1019Y2244D01*
X1059Y2244D02*
X1072Y2244D01*
X1013Y2243D02*
X1019Y2243D01*
X1059Y2243D02*
X1073Y2243D01*
X1013Y2242D02*
X1019Y2242D01*
X1058Y2242D02*
X1065Y2242D01*
X1067Y2242D02*
X1073Y2242D01*
X1013Y2241D02*
X1019Y2241D01*
X1058Y2241D02*
X1065Y2241D01*
X1067Y2241D02*
X1073Y2241D01*
X1013Y2240D02*
X1019Y2240D01*
X1058Y2240D02*
X1064Y2240D01*
X1067Y2240D02*
X1074Y2240D01*
X1013Y2239D02*
X1019Y2239D01*
X1058Y2239D02*
X1064Y2239D01*
X1068Y2239D02*
X1074Y2239D01*
X1013Y2238D02*
X1019Y2238D01*
X1057Y2238D02*
X1064Y2238D01*
X1068Y2238D02*
X1074Y2238D01*
X1013Y2237D02*
X1019Y2237D01*
X1057Y2237D02*
X1063Y2237D01*
X1068Y2237D02*
X1075Y2237D01*
X1013Y2236D02*
X1019Y2236D01*
X1057Y2236D02*
X1063Y2236D01*
X1068Y2236D02*
X1075Y2236D01*
X1013Y2235D02*
X1019Y2235D01*
X1056Y2235D02*
X1063Y2235D01*
X1069Y2235D02*
X1075Y2235D01*
X1013Y2234D02*
X1019Y2234D01*
X1056Y2234D02*
X1062Y2234D01*
X1069Y2234D02*
X1075Y2234D01*
X1013Y2233D02*
X1019Y2233D01*
X1056Y2233D02*
X1062Y2233D01*
X1069Y2233D02*
X1076Y2233D01*
X1013Y2232D02*
X1019Y2232D01*
X1056Y2232D02*
X1062Y2232D01*
X1070Y2232D02*
X1076Y2232D01*
X1013Y2231D02*
X1019Y2231D01*
X1055Y2231D02*
X1062Y2231D01*
X1070Y2231D02*
X1076Y2231D01*
X1001Y2230D02*
X1003Y2230D01*
X1013Y2230D02*
X1019Y2230D01*
X1055Y2230D02*
X1061Y2230D01*
X1070Y2230D02*
X1077Y2230D01*
X1000Y2229D02*
X1004Y2229D01*
X1013Y2229D02*
X1019Y2229D01*
X1055Y2229D02*
X1061Y2229D01*
X1071Y2229D02*
X1077Y2229D01*
X999Y2228D02*
X1005Y2228D01*
X1013Y2228D02*
X1019Y2228D01*
X1054Y2228D02*
X1061Y2228D01*
X1071Y2228D02*
X1077Y2228D01*
X999Y2227D02*
X1005Y2227D01*
X1013Y2227D02*
X1019Y2227D01*
X1054Y2227D02*
X1060Y2227D01*
X1071Y2227D02*
X1077Y2227D01*
X999Y2226D02*
X1005Y2226D01*
X1013Y2226D02*
X1019Y2226D01*
X1054Y2226D02*
X1060Y2226D01*
X1071Y2226D02*
X1078Y2226D01*
X999Y2225D02*
X1005Y2225D01*
X1013Y2225D02*
X1019Y2225D01*
X1054Y2225D02*
X1060Y2225D01*
X1072Y2225D02*
X1078Y2225D01*
X999Y2224D02*
X1005Y2224D01*
X1013Y2224D02*
X1019Y2224D01*
X1053Y2224D02*
X1078Y2224D01*
X999Y2223D02*
X1005Y2223D01*
X1013Y2223D02*
X1019Y2223D01*
X1053Y2223D02*
X1079Y2223D01*
X999Y2222D02*
X1005Y2222D01*
X1013Y2222D02*
X1019Y2222D01*
X1053Y2222D02*
X1079Y2222D01*
X999Y2221D02*
X1005Y2221D01*
X1013Y2221D02*
X1019Y2221D01*
X1052Y2221D02*
X1079Y2221D01*
X999Y2220D02*
X1005Y2220D01*
X1013Y2220D02*
X1019Y2220D01*
X1052Y2220D02*
X1079Y2220D01*
X999Y2219D02*
X1005Y2219D01*
X1013Y2219D02*
X1019Y2219D01*
X1052Y2219D02*
X1080Y2219D01*
X999Y2218D02*
X1005Y2218D01*
X1013Y2218D02*
X1019Y2218D01*
X1051Y2218D02*
X1080Y2218D01*
X999Y2217D02*
X1005Y2217D01*
X1013Y2217D02*
X1019Y2217D01*
X1051Y2217D02*
X1057Y2217D01*
X1074Y2217D02*
X1080Y2217D01*
X999Y2216D02*
X1005Y2216D01*
X1013Y2216D02*
X1019Y2216D01*
X1051Y2216D02*
X1057Y2216D01*
X1074Y2216D02*
X1081Y2216D01*
X999Y2215D02*
X1005Y2215D01*
X1013Y2215D02*
X1019Y2215D01*
X1051Y2215D02*
X1057Y2215D01*
X1075Y2215D02*
X1081Y2215D01*
X999Y2214D02*
X1005Y2214D01*
X1013Y2214D02*
X1019Y2214D01*
X1050Y2214D02*
X1057Y2214D01*
X1075Y2214D02*
X1081Y2214D01*
X999Y2213D02*
X1005Y2213D01*
X1013Y2213D02*
X1019Y2213D01*
X1050Y2213D02*
X1056Y2213D01*
X1075Y2213D02*
X1082Y2213D01*
X999Y2212D02*
X1031Y2212D01*
X1050Y2212D02*
X1056Y2212D01*
X1076Y2212D02*
X1082Y2212D01*
X999Y2211D02*
X1032Y2211D01*
X1049Y2211D02*
X1056Y2211D01*
X1076Y2211D02*
X1082Y2211D01*
X999Y2210D02*
X1032Y2210D01*
X1049Y2210D02*
X1055Y2210D01*
X1076Y2210D02*
X1082Y2210D01*
X999Y2209D02*
X1032Y2209D01*
X1049Y2209D02*
X1055Y2209D01*
X1076Y2209D02*
X1083Y2209D01*
X999Y2208D02*
X1032Y2208D01*
X1049Y2208D02*
X1055Y2208D01*
X1077Y2208D02*
X1082Y2208D01*
X1000Y2207D02*
X1032Y2207D01*
X1050Y2207D02*
X1054Y2207D01*
X1077Y2207D02*
X1082Y2207D01*
X1001Y2206D02*
X1031Y2206D01*
X1051Y2206D02*
X1053Y2206D01*
X1078Y2206D02*
X1081Y2206D01*
D02*
G04 End of Silk0*
M02*